<?xml version="1.0"?><svg xmlns="http://www.w3.org/2000/svg" width="150" height="150">
	<rect fill="rgba(0,0,0,255)" x="50" y="0" width="10" height="10"/>
	<rect fill="rgba(0,0,0,255)" x="60" y="0" width="10" height="10"/>
	<rect fill="rgba(0,0,0,255)" x="70" y="0" width="10" height="10"/>
	<rect fill="rgba(0,0,0,255)" x="80" y="0" width="10" height="10"/>
	<rect fill="rgba(0,0,0,255)" x="90" y="0" width="10" height="10"/>
	<rect fill="rgba(0,0,0,255)" x="30" y="10" width="10" height="10"/>
	<rect fill="rgba(0,0,0,255)" x="40" y="10" width="10" height="10"/>
	<rect fill="rgba(155,89,65,255)" x="50" y="10" width="10" height="10"/>
	<rect fill="rgba(155,89,65,255)" x="60" y="10" width="10" height="10"/>
	<rect fill="rgba(155,89,65,255)" x="70" y="10" width="10" height="10"/>
	<rect fill="rgba(155,89,65,255)" x="80" y="10" width="10" height="10"/>
	<rect fill="rgba(155,89,65,255)" x="90" y="10" width="10" height="10"/>
	<rect fill="rgba(0,0,0,255)" x="100" y="10" width="10" height="10"/>
	<rect fill="rgba(0,0,0,255)" x="110" y="10" width="10" height="10"/>
	<rect fill="rgba(0,0,0,255)" x="20" y="20" width="10" height="10"/>
	<rect fill="rgba(155,89,65,255)" x="30" y="20" width="10" height="10"/>
	<rect fill="rgba(155,89,65,255)" x="40" y="20" width="10" height="10"/>
	<rect fill="rgba(255,196,161,255)" x="50" y="20" width="10" height="10"/>
	<rect fill="rgba(187,115,90,255)" x="60" y="20" width="10" height="10"/>
	<rect fill="rgba(187,115,90,255)" x="70" y="20" width="10" height="10"/>
	<rect fill="rgba(187,115,90,255)" x="80" y="20" width="10" height="10"/>
	<rect fill="rgba(187,115,90,255)" x="90" y="20" width="10" height="10"/>
	<rect fill="rgba(119,81,34,255)" x="100" y="20" width="10" height="10"/>
	<rect fill="rgba(119,81,34,255)" x="110" y="20" width="10" height="10"/>
	<rect fill="rgba(0,0,0,255)" x="120" y="20" width="10" height="10"/>
	<rect fill="rgba(0,0,0,255)" x="10" y="30" width="10" height="10"/>
	<rect fill="rgba(155,89,65,255)" x="20" y="30" width="10" height="10"/>
	<rect fill="rgba(255,196,161,255)" x="30" y="30" width="10" height="10"/>
	<rect fill="rgba(255,196,161,255)" x="40" y="30" width="10" height="10"/>
	<rect fill="rgba(187,115,90,255)" x="50" y="30" width="10" height="10"/>
	<rect fill="rgba(119,81,34,255)" x="60" y="30" width="10" height="10"/>
	<rect fill="rgba(119,81,34,255)" x="70" y="30" width="10" height="10"/>
	<rect fill="rgba(119,81,34,255)" x="80" y="30" width="10" height="10"/>
	<rect fill="rgba(187,115,90,255)" x="90" y="30" width="10" height="10"/>
	<rect fill="rgba(187,115,90,255)" x="100" y="30" width="10" height="10"/>
	<rect fill="rgba(187,115,90,255)" x="110" y="30" width="10" height="10"/>
	<rect fill="rgba(119,81,34,255)" x="120" y="30" width="10" height="10"/>
	<rect fill="rgba(0,0,0,255)" x="130" y="30" width="10" height="10"/>
	<rect fill="rgba(0,0,0,255)" x="10" y="40" width="10" height="10"/>
	<rect fill="rgba(155,89,65,255)" x="20" y="40" width="10" height="10"/>
	<rect fill="rgba(255,196,161,255)" x="30" y="40" width="10" height="10"/>
	<rect fill="rgba(119,81,34,255)" x="40" y="40" width="10" height="10"/>
	<rect fill="rgba(119,81,34,255)" x="50" y="40" width="10" height="10"/>
	<rect fill="rgba(155,89,65,255)" x="60" y="40" width="10" height="10"/>
	<rect fill="rgba(155,89,65,255)" x="70" y="40" width="10" height="10"/>
	<rect fill="rgba(155,89,65,255)" x="80" y="40" width="10" height="10"/>
	<rect fill="rgba(119,81,34,255)" x="90" y="40" width="10" height="10"/>
	<rect fill="rgba(119,81,34,255)" x="100" y="40" width="10" height="10"/>
	<rect fill="rgba(187,115,90,255)" x="110" y="40" width="10" height="10"/>
	<rect fill="rgba(119,81,34,255)" x="120" y="40" width="10" height="10"/>
	<rect fill="rgba(0,0,0,255)" x="130" y="40" width="10" height="10"/>
	<rect fill="rgba(0,0,0,255)" x="0" y="50" width="10" height="10"/>
	<rect fill="rgba(155,89,65,255)" x="10" y="50" width="10" height="10"/>
	<rect fill="rgba(255,196,161,255)" x="20" y="50" width="10" height="10"/>
	<rect fill="rgba(187,115,90,255)" x="30" y="50" width="10" height="10"/>
	<rect fill="rgba(119,81,34,255)" x="40" y="50" width="10" height="10"/>
	<rect fill="rgba(155,89,65,255)" x="50" y="50" width="10" height="10"/>
	<rect fill="rgba(155,89,65,255)" x="60" y="50" width="10" height="10"/>
	<rect fill="rgba(155,89,65,255)" x="70" y="50" width="10" height="10"/>
	<rect fill="rgba(187,115,90,255)" x="80" y="50" width="10" height="10"/>
	<rect fill="rgba(187,115,90,255)" x="90" y="50" width="10" height="10"/>
	<rect fill="rgba(119,81,34,255)" x="100" y="50" width="10" height="10"/>
	<rect fill="rgba(187,115,90,255)" x="110" y="50" width="10" height="10"/>
	<rect fill="rgba(187,115,90,255)" x="120" y="50" width="10" height="10"/>
	<rect fill="rgba(119,81,34,255)" x="130" y="50" width="10" height="10"/>
	<rect fill="rgba(0,0,0,255)" x="140" y="50" width="10" height="10"/>
	<rect fill="rgba(0,0,0,255)" x="0" y="60" width="10" height="10"/>
	<rect fill="rgba(155,89,65,255)" x="10" y="60" width="10" height="10"/>
	<rect fill="rgba(187,115,90,255)" x="20" y="60" width="10" height="10"/>
	<rect fill="rgba(119,81,34,255)" x="30" y="60" width="10" height="10"/>
	<rect fill="rgba(155,89,65,255)" x="40" y="60" width="10" height="10"/>
	<rect fill="rgba(155,89,65,255)" x="50" y="60" width="10" height="10"/>
	<rect fill="rgba(155,89,65,255)" x="60" y="60" width="10" height="10"/>
	<rect fill="rgba(187,115,90,255)" x="70" y="60" width="10" height="10"/>
	<rect fill="rgba(187,115,90,255)" x="80" y="60" width="10" height="10"/>
	<rect fill="rgba(187,115,90,255)" x="90" y="60" width="10" height="10"/>
	<rect fill="rgba(187,115,90,255)" x="100" y="60" width="10" height="10"/>
	<rect fill="rgba(155,89,65,255)" x="110" y="60" width="10" height="10"/>
	<rect fill="rgba(187,115,90,255)" x="120" y="60" width="10" height="10"/>
	<rect fill="rgba(119,81,34,255)" x="130" y="60" width="10" height="10"/>
	<rect fill="rgba(0,0,0,255)" x="140" y="60" width="10" height="10"/>
	<rect fill="rgba(0,0,0,255)" x="0" y="70" width="10" height="10"/>
	<rect fill="rgba(155,89,65,255)" x="10" y="70" width="10" height="10"/>
	<rect fill="rgba(187,115,90,255)" x="20" y="70" width="10" height="10"/>
	<rect fill="rgba(119,81,34,255)" x="30" y="70" width="10" height="10"/>
	<rect fill="rgba(155,89,65,255)" x="40" y="70" width="10" height="10"/>
	<rect fill="rgba(155,89,65,255)" x="50" y="70" width="10" height="10"/>
	<rect fill="rgba(187,115,90,255)" x="60" y="70" width="10" height="10"/>
	<rect fill="rgba(187,115,90,255)" x="70" y="70" width="10" height="10"/>
	<rect fill="rgba(187,115,90,255)" x="80" y="70" width="10" height="10"/>
	<rect fill="rgba(187,115,90,255)" x="90" y="70" width="10" height="10"/>
	<rect fill="rgba(255,196,161,255)" x="100" y="70" width="10" height="10"/>
	<rect fill="rgba(155,89,65,255)" x="110" y="70" width="10" height="10"/>
	<rect fill="rgba(187,115,90,255)" x="120" y="70" width="10" height="10"/>
	<rect fill="rgba(119,81,34,255)" x="130" y="70" width="10" height="10"/>
	<rect fill="rgba(0,0,0,255)" x="140" y="70" width="10" height="10"/>
	<rect fill="rgba(0,0,0,255)" x="0" y="80" width="10" height="10"/>
	<rect fill="rgba(155,89,65,255)" x="10" y="80" width="10" height="10"/>
	<rect fill="rgba(187,115,90,255)" x="20" y="80" width="10" height="10"/>
	<rect fill="rgba(119,81,34,255)" x="30" y="80" width="10" height="10"/>
	<rect fill="rgba(155,89,65,255)" x="40" y="80" width="10" height="10"/>
	<rect fill="rgba(187,115,90,255)" x="50" y="80" width="10" height="10"/>
	<rect fill="rgba(187,115,90,255)" x="60" y="80" width="10" height="10"/>
	<rect fill="rgba(187,115,90,255)" x="70" y="80" width="10" height="10"/>
	<rect fill="rgba(187,115,90,255)" x="80" y="80" width="10" height="10"/>
	<rect fill="rgba(187,115,90,255)" x="90" y="80" width="10" height="10"/>
	<rect fill="rgba(255,196,161,255)" x="100" y="80" width="10" height="10"/>
	<rect fill="rgba(155,89,65,255)" x="110" y="80" width="10" height="10"/>
	<rect fill="rgba(187,115,90,255)" x="120" y="80" width="10" height="10"/>
	<rect fill="rgba(119,81,34,255)" x="130" y="80" width="10" height="10"/>
	<rect fill="rgba(0,0,0,255)" x="140" y="80" width="10" height="10"/>
	<rect fill="rgba(0,0,0,255)" x="0" y="90" width="10" height="10"/>
	<rect fill="rgba(155,89,65,255)" x="10" y="90" width="10" height="10"/>
	<rect fill="rgba(187,115,90,255)" x="20" y="90" width="10" height="10"/>
	<rect fill="rgba(187,115,90,255)" x="30" y="90" width="10" height="10"/>
	<rect fill="rgba(119,81,34,255)" x="40" y="90" width="10" height="10"/>
	<rect fill="rgba(187,115,90,255)" x="50" y="90" width="10" height="10"/>
	<rect fill="rgba(187,115,90,255)" x="60" y="90" width="10" height="10"/>
	<rect fill="rgba(187,115,90,255)" x="70" y="90" width="10" height="10"/>
	<rect fill="rgba(187,115,90,255)" x="80" y="90" width="10" height="10"/>
	<rect fill="rgba(255,196,161,255)" x="90" y="90" width="10" height="10"/>
	<rect fill="rgba(155,89,65,255)" x="100" y="90" width="10" height="10"/>
	<rect fill="rgba(187,115,90,255)" x="110" y="90" width="10" height="10"/>
	<rect fill="rgba(187,115,90,255)" x="120" y="90" width="10" height="10"/>
	<rect fill="rgba(119,81,34,255)" x="130" y="90" width="10" height="10"/>
	<rect fill="rgba(0,0,0,255)" x="140" y="90" width="10" height="10"/>
	<rect fill="rgba(0,0,0,255)" x="10" y="100" width="10" height="10"/>
	<rect fill="rgba(155,89,65,255)" x="20" y="100" width="10" height="10"/>
	<rect fill="rgba(187,115,90,255)" x="30" y="100" width="10" height="10"/>
	<rect fill="rgba(119,81,34,255)" x="40" y="100" width="10" height="10"/>
	<rect fill="rgba(119,81,34,255)" x="50" y="100" width="10" height="10"/>
	<rect fill="rgba(187,115,90,255)" x="60" y="100" width="10" height="10"/>
	<rect fill="rgba(255,196,161,255)" x="70" y="100" width="10" height="10"/>
	<rect fill="rgba(255,196,161,255)" x="80" y="100" width="10" height="10"/>
	<rect fill="rgba(155,89,65,255)" x="90" y="100" width="10" height="10"/>
	<rect fill="rgba(155,89,65,255)" x="100" y="100" width="10" height="10"/>
	<rect fill="rgba(187,115,90,255)" x="110" y="100" width="10" height="10"/>
	<rect fill="rgba(119,81,34,255)" x="120" y="100" width="10" height="10"/>
	<rect fill="rgba(0,0,0,255)" x="130" y="100" width="10" height="10"/>
	<rect fill="rgba(0,0,0,255)" x="10" y="110" width="10" height="10"/>
	<rect fill="rgba(155,89,65,255)" x="20" y="110" width="10" height="10"/>
	<rect fill="rgba(187,115,90,255)" x="30" y="110" width="10" height="10"/>
	<rect fill="rgba(187,115,90,255)" x="40" y="110" width="10" height="10"/>
	<rect fill="rgba(187,115,90,255)" x="50" y="110" width="10" height="10"/>
	<rect fill="rgba(155,89,65,255)" x="60" y="110" width="10" height="10"/>
	<rect fill="rgba(155,89,65,255)" x="70" y="110" width="10" height="10"/>
	<rect fill="rgba(155,89,65,255)" x="80" y="110" width="10" height="10"/>
	<rect fill="rgba(187,115,90,255)" x="90" y="110" width="10" height="10"/>
	<rect fill="rgba(187,115,90,255)" x="100" y="110" width="10" height="10"/>
	<rect fill="rgba(187,115,90,255)" x="110" y="110" width="10" height="10"/>
	<rect fill="rgba(119,81,34,255)" x="120" y="110" width="10" height="10"/>
	<rect fill="rgba(0,0,0,255)" x="130" y="110" width="10" height="10"/>
	<rect fill="rgba(0,0,0,255)" x="20" y="120" width="10" height="10"/>
	<rect fill="rgba(155,89,65,255)" x="30" y="120" width="10" height="10"/>
	<rect fill="rgba(155,89,65,255)" x="40" y="120" width="10" height="10"/>
	<rect fill="rgba(187,115,90,255)" x="50" y="120" width="10" height="10"/>
	<rect fill="rgba(187,115,90,255)" x="60" y="120" width="10" height="10"/>
	<rect fill="rgba(187,115,90,255)" x="70" y="120" width="10" height="10"/>
	<rect fill="rgba(187,115,90,255)" x="80" y="120" width="10" height="10"/>
	<rect fill="rgba(187,115,90,255)" x="90" y="120" width="10" height="10"/>
	<rect fill="rgba(119,81,34,255)" x="100" y="120" width="10" height="10"/>
	<rect fill="rgba(119,81,34,255)" x="110" y="120" width="10" height="10"/>
	<rect fill="rgba(0,0,0,255)" x="120" y="120" width="10" height="10"/>
	<rect fill="rgba(0,0,0,255)" x="30" y="130" width="10" height="10"/>
	<rect fill="rgba(0,0,0,255)" x="40" y="130" width="10" height="10"/>
	<rect fill="rgba(155,89,65,255)" x="50" y="130" width="10" height="10"/>
	<rect fill="rgba(155,89,65,255)" x="60" y="130" width="10" height="10"/>
	<rect fill="rgba(155,89,65,255)" x="70" y="130" width="10" height="10"/>
	<rect fill="rgba(155,89,65,255)" x="80" y="130" width="10" height="10"/>
	<rect fill="rgba(155,89,65,255)" x="90" y="130" width="10" height="10"/>
	<rect fill="rgba(0,0,0,255)" x="100" y="130" width="10" height="10"/>
	<rect fill="rgba(0,0,0,255)" x="110" y="130" width="10" height="10"/>
	<rect fill="rgba(0,0,0,255)" x="50" y="140" width="10" height="10"/>
	<rect fill="rgba(0,0,0,255)" x="60" y="140" width="10" height="10"/>
	<rect fill="rgba(0,0,0,255)" x="70" y="140" width="10" height="10"/>
	<rect fill="rgba(0,0,0,255)" x="80" y="140" width="10" height="10"/>
	<rect fill="rgba(0,0,0,255)" x="90" y="140" width="10" height="10"/>
</svg>