<?xml version="1.0"?><svg xmlns="http://www.w3.org/2000/svg" width="150" height="150">
	<rect fill="rgba(238,238,238,255)" x="90" y="10" width="10" height="10"/>
	<rect fill="rgba(238,238,238,255)" x="100" y="10" width="10" height="10"/>
	<rect fill="rgba(238,238,238,255)" x="80" y="20" width="10" height="10"/>
	<rect fill="rgba(238,238,238,255)" x="90" y="20" width="10" height="10"/>
	<rect fill="rgba(238,238,238,255)" x="100" y="20" width="10" height="10"/>
	<rect fill="rgba(238,238,238,255)" x="70" y="30" width="10" height="10"/>
	<rect fill="rgba(238,238,238,255)" x="80" y="30" width="10" height="10"/>
	<rect fill="rgba(204,204,204,255)" x="90" y="30" width="10" height="10"/>
	<rect fill="rgba(238,238,238,255)" x="100" y="30" width="10" height="10"/>
	<rect fill="rgba(238,238,238,255)" x="60" y="40" width="10" height="10"/>
	<rect fill="rgba(238,238,238,255)" x="70" y="40" width="10" height="10"/>
	<rect fill="rgba(204,204,204,255)" x="80" y="40" width="10" height="10"/>
	<rect fill="rgba(238,238,238,255)" x="90" y="40" width="10" height="10"/>
	<rect fill="rgba(238,238,238,255)" x="100" y="40" width="10" height="10"/>
	<rect fill="rgba(238,238,238,255)" x="50" y="50" width="10" height="10"/>
	<rect fill="rgba(238,238,238,255)" x="60" y="50" width="10" height="10"/>
	<rect fill="rgba(238,238,238,255)" x="70" y="50" width="10" height="10"/>
	<rect fill="rgba(238,238,238,255)" x="80" y="50" width="10" height="10"/>
	<rect fill="rgba(238,238,238,255)" x="90" y="50" width="10" height="10"/>
	<rect fill="rgba(238,238,238,255)" x="100" y="50" width="10" height="10"/>
	<rect fill="rgba(238,238,238,255)" x="40" y="60" width="10" height="10"/>
	<rect fill="rgba(238,238,238,255)" x="50" y="60" width="10" height="10"/>
	<rect fill="rgba(238,238,238,255)" x="60" y="60" width="10" height="10"/>
	<rect fill="rgba(238,238,238,255)" x="70" y="60" width="10" height="10"/>
	<rect fill="rgba(238,238,238,255)" x="80" y="60" width="10" height="10"/>
	<rect fill="rgba(238,238,238,255)" x="90" y="60" width="10" height="10"/>
	<rect fill="rgba(238,238,238,255)" x="100" y="60" width="10" height="10"/>
	<rect fill="rgba(204,204,204,255)" x="30" y="70" width="10" height="10"/>
	<rect fill="rgba(204,204,204,255)" x="40" y="70" width="10" height="10"/>
	<rect fill="rgba(238,238,238,255)" x="50" y="70" width="10" height="10"/>
	<rect fill="rgba(238,238,238,255)" x="60" y="70" width="10" height="10"/>
	<rect fill="rgba(238,238,238,255)" x="70" y="70" width="10" height="10"/>
	<rect fill="rgba(238,238,238,255)" x="80" y="70" width="10" height="10"/>
	<rect fill="rgba(238,238,238,255)" x="90" y="70" width="10" height="10"/>
	<rect fill="rgba(238,238,238,255)" x="100" y="70" width="10" height="10"/>
	<rect fill="rgba(204,204,204,255)" x="40" y="80" width="10" height="10"/>
	<rect fill="rgba(204,204,204,255)" x="50" y="80" width="10" height="10"/>
	<rect fill="rgba(238,238,238,255)" x="60" y="80" width="10" height="10"/>
	<rect fill="rgba(238,238,238,255)" x="70" y="80" width="10" height="10"/>
	<rect fill="rgba(238,238,238,255)" x="80" y="80" width="10" height="10"/>
	<rect fill="rgba(238,238,238,255)" x="90" y="80" width="10" height="10"/>
	<rect fill="rgba(238,238,238,255)" x="100" y="80" width="10" height="10"/>
	<rect fill="rgba(204,204,204,255)" x="50" y="90" width="10" height="10"/>
	<rect fill="rgba(204,204,204,255)" x="60" y="90" width="10" height="10"/>
	<rect fill="rgba(238,238,238,255)" x="70" y="90" width="10" height="10"/>
	<rect fill="rgba(238,238,238,255)" x="80" y="90" width="10" height="10"/>
	<rect fill="rgba(238,238,238,255)" x="90" y="90" width="10" height="10"/>
	<rect fill="rgba(238,238,238,255)" x="100" y="90" width="10" height="10"/>
	<rect fill="rgba(204,204,204,255)" x="60" y="100" width="10" height="10"/>
	<rect fill="rgba(204,204,204,255)" x="70" y="100" width="10" height="10"/>
	<rect fill="rgba(238,238,238,255)" x="80" y="100" width="10" height="10"/>
	<rect fill="rgba(238,238,238,255)" x="90" y="100" width="10" height="10"/>
	<rect fill="rgba(238,238,238,255)" x="100" y="100" width="10" height="10"/>
	<rect fill="rgba(204,204,204,255)" x="70" y="110" width="10" height="10"/>
	<rect fill="rgba(204,204,204,255)" x="80" y="110" width="10" height="10"/>
	<rect fill="rgba(238,238,238,255)" x="90" y="110" width="10" height="10"/>
	<rect fill="rgba(238,238,238,255)" x="100" y="110" width="10" height="10"/>
	<rect fill="rgba(204,204,204,255)" x="80" y="120" width="10" height="10"/>
	<rect fill="rgba(204,204,204,255)" x="90" y="120" width="10" height="10"/>
	<rect fill="rgba(238,238,238,255)" x="100" y="120" width="10" height="10"/>
	<rect fill="rgba(204,204,204,255)" x="90" y="130" width="10" height="10"/>
	<rect fill="rgba(204,204,204,255)" x="100" y="130" width="10" height="10"/>
</svg>