<svg xmlns="http://www.w3.org/2000/svg" shape-rendering="crispEdges" viewBox="0 0 256 256" width="256" height="256">
	<rect fill="rgba(238,238,238,255)" x="32" y="16" width="16" height="16"/>
	<rect fill="rgba(238,238,238,255)" x="48" y="16" width="16" height="16"/>
	<rect fill="rgba(238,238,238,255)" x="64" y="16" width="16" height="16"/>
	<rect fill="rgba(238,238,238,255)" x="80" y="16" width="16" height="16"/>
	<rect fill="rgba(238,238,238,255)" x="96" y="16" width="16" height="16"/>
	<rect fill="rgba(238,238,238,255)" x="112" y="16" width="16" height="16"/>
	<rect fill="rgba(238,238,238,255)" x="128" y="16" width="16" height="16"/>
	<rect fill="rgba(238,238,238,255)" x="144" y="16" width="16" height="16"/>
	<rect fill="rgba(238,238,238,255)" x="160" y="16" width="16" height="16"/>
	<rect fill="rgba(238,238,238,255)" x="176" y="16" width="16" height="16"/>
	<rect fill="rgba(238,238,238,255)" x="192" y="16" width="16" height="16"/>
	<rect fill="rgba(238,238,238,255)" x="208" y="16" width="16" height="16"/>
	<rect fill="rgba(238,238,238,255)" x="32" y="32" width="16" height="16"/>
	<rect fill="rgba(238,238,238,255)" x="208" y="32" width="16" height="16"/>
	<rect fill="rgba(238,238,238,255)" x="32" y="48" width="16" height="16"/>
	<rect fill="rgba(238,238,238,255)" x="208" y="48" width="16" height="16"/>
	<rect fill="rgba(204,204,204,255)" x="32" y="64" width="16" height="16"/>
	<rect fill="rgba(204,204,204,255)" x="208" y="64" width="16" height="16"/>
	<rect fill="rgba(204,204,204,255)" x="16" y="80" width="16" height="16"/>
	<rect fill="rgba(204,204,204,255)" x="32" y="80" width="16" height="16"/>
	<rect fill="rgba(204,204,204,255)" x="48" y="80" width="16" height="16"/>
	<rect fill="rgba(204,204,204,255)" x="192" y="80" width="16" height="16"/>
	<rect fill="rgba(204,204,204,255)" x="208" y="80" width="16" height="16"/>
	<rect fill="rgba(204,204,204,255)" x="224" y="80" width="16" height="16"/>
	<rect fill="rgba(204,204,204,255)" x="192" y="96" width="16" height="16"/>
	<rect fill="rgba(204,204,204,255)" x="224" y="96" width="16" height="16"/>
	<rect fill="rgba(204,204,204,255)" x="16" y="112" width="16" height="16"/>
	<rect fill="rgba(204,204,204,255)" x="32" y="112" width="16" height="16"/>
	<rect fill="rgba(204,204,204,255)" x="48" y="112" width="16" height="16"/>
	<rect fill="rgba(204,204,204,255)" x="192" y="112" width="16" height="16"/>
	<rect fill="rgba(204,204,204,255)" x="224" y="112" width="16" height="16"/>
	<rect fill="rgba(204,204,204,255)" x="16" y="128" width="16" height="16"/>
	<rect fill="rgba(204,204,204,255)" x="32" y="128" width="16" height="16"/>
	<rect fill="rgba(204,204,204,255)" x="48" y="128" width="16" height="16"/>
	<rect fill="rgba(204,204,204,255)" x="192" y="128" width="16" height="16"/>
	<rect fill="rgba(204,204,204,255)" x="224" y="128" width="16" height="16"/>
	<rect fill="rgba(204,204,204,255)" x="32" y="144" width="16" height="16"/>
	<rect fill="rgba(204,204,204,255)" x="192" y="144" width="16" height="16"/>
	<rect fill="rgba(204,204,204,255)" x="208" y="144" width="16" height="16"/>
	<rect fill="rgba(204,204,204,255)" x="224" y="144" width="16" height="16"/>
	<rect fill="rgba(238,238,238,255)" x="32" y="160" width="16" height="16"/>
	<rect fill="rgba(204,204,204,255)" x="208" y="160" width="16" height="16"/>
	<rect fill="rgba(238,238,238,255)" x="32" y="176" width="16" height="16"/>
	<rect fill="rgba(238,238,238,255)" x="208" y="176" width="16" height="16"/>
	<rect fill="rgba(238,238,238,255)" x="32" y="192" width="16" height="16"/>
	<rect fill="rgba(204,204,204,255)" x="144" y="192" width="16" height="16"/>
	<rect fill="rgba(238,238,238,255)" x="208" y="192" width="16" height="16"/>
	<rect fill="rgba(238,238,238,255)" x="32" y="208" width="16" height="16"/>
	<rect fill="rgba(204,204,204,255)" x="96" y="208" width="16" height="16"/>
	<rect fill="rgba(204,204,204,255)" x="112" y="208" width="16" height="16"/>
	<rect fill="rgba(204,204,204,255)" x="128" y="208" width="16" height="16"/>
	<rect fill="rgba(238,238,238,255)" x="208" y="208" width="16" height="16"/>
	<rect fill="rgba(238,238,238,255)" x="32" y="224" width="16" height="16"/>
	<rect fill="rgba(238,238,238,255)" x="48" y="224" width="16" height="16"/>
	<rect fill="rgba(238,238,238,255)" x="64" y="224" width="16" height="16"/>
	<rect fill="rgba(204,204,204,255)" x="80" y="224" width="16" height="16"/>
	<rect fill="rgba(204,204,204,255)" x="160" y="224" width="16" height="16"/>
	<rect fill="rgba(238,238,238,255)" x="176" y="224" width="16" height="16"/>
	<rect fill="rgba(238,238,238,255)" x="192" y="224" width="16" height="16"/>
	<rect fill="rgba(238,238,238,255)" x="208" y="224" width="16" height="16"/>
</svg>