<?xml version="1.0"?><svg xmlns="http://www.w3.org/2000/svg" width="150" height="150">
	<rect fill="rgba(238,238,238,255)" x="40" y="40" width="10" height="10"/>
	<rect fill="rgba(238,238,238,255)" x="50" y="40" width="10" height="10"/>
	<rect fill="rgba(238,238,238,255)" x="90" y="40" width="10" height="10"/>
	<rect fill="rgba(238,238,238,255)" x="100" y="40" width="10" height="10"/>
	<rect fill="rgba(238,238,238,255)" x="30" y="50" width="10" height="10"/>
	<rect fill="rgba(238,238,238,255)" x="40" y="50" width="10" height="10"/>
	<rect fill="rgba(238,238,238,255)" x="100" y="50" width="10" height="10"/>
	<rect fill="rgba(238,238,238,255)" x="110" y="50" width="10" height="10"/>
	<rect fill="rgba(238,238,238,255)" x="20" y="60" width="10" height="10"/>
	<rect fill="rgba(238,238,238,255)" x="30" y="60" width="10" height="10"/>
	<rect fill="rgba(238,238,238,255)" x="110" y="60" width="10" height="10"/>
	<rect fill="rgba(238,238,238,255)" x="120" y="60" width="10" height="10"/>
	<rect fill="rgba(204,204,204,255)" x="10" y="70" width="10" height="10"/>
	<rect fill="rgba(238,238,238,255)" x="20" y="70" width="10" height="10"/>
	<rect fill="rgba(238,238,238,255)" x="120" y="70" width="10" height="10"/>
	<rect fill="rgba(204,204,204,255)" x="130" y="70" width="10" height="10"/>
	<rect fill="rgba(204,204,204,255)" x="20" y="80" width="10" height="10"/>
	<rect fill="rgba(238,238,238,255)" x="30" y="80" width="10" height="10"/>
	<rect fill="rgba(238,238,238,255)" x="110" y="80" width="10" height="10"/>
	<rect fill="rgba(204,204,204,255)" x="120" y="80" width="10" height="10"/>
	<rect fill="rgba(204,204,204,255)" x="30" y="90" width="10" height="10"/>
	<rect fill="rgba(238,238,238,255)" x="40" y="90" width="10" height="10"/>
	<rect fill="rgba(238,238,238,255)" x="100" y="90" width="10" height="10"/>
	<rect fill="rgba(204,204,204,255)" x="110" y="90" width="10" height="10"/>
	<rect fill="rgba(204,204,204,255)" x="40" y="100" width="10" height="10"/>
	<rect fill="rgba(204,204,204,255)" x="50" y="100" width="10" height="10"/>
	<rect fill="rgba(204,204,204,255)" x="90" y="100" width="10" height="10"/>
	<rect fill="rgba(204,204,204,255)" x="100" y="100" width="10" height="10"/>
</svg>