<?xml version="1.0"?><svg xmlns="http://www.w3.org/2000/svg" width="150" height="150">
	<rect fill="rgba(0,0,0,255)" x="30" y="20" width="10" height="10"/>
	<rect fill="rgba(0,0,0,255)" x="40" y="20" width="10" height="10"/>
	<rect fill="rgba(0,0,0,255)" x="50" y="20" width="10" height="10"/>
	<rect fill="rgba(0,0,0,255)" x="60" y="20" width="10" height="10"/>
	<rect fill="rgba(0,0,0,255)" x="70" y="20" width="10" height="10"/>
	<rect fill="rgba(0,0,0,255)" x="80" y="20" width="10" height="10"/>
	<rect fill="rgba(0,0,0,255)" x="90" y="20" width="10" height="10"/>
	<rect fill="rgba(0,0,0,255)" x="100" y="20" width="10" height="10"/>
	<rect fill="rgba(0,0,0,255)" x="110" y="20" width="10" height="10"/>
	<rect fill="rgba(0,0,0,255)" x="20" y="30" width="10" height="10"/>
	<rect fill="rgba(229,255,255,255)" x="30" y="30" width="10" height="10"/>
	<rect fill="rgba(229,255,255,255)" x="40" y="30" width="10" height="10"/>
	<rect fill="rgba(229,255,255,255)" x="50" y="30" width="10" height="10"/>
	<rect fill="rgba(1,255,255,255)" x="60" y="30" width="10" height="10"/>
	<rect fill="rgba(1,255,255,255)" x="70" y="30" width="10" height="10"/>
	<rect fill="rgba(1,255,255,255)" x="80" y="30" width="10" height="10"/>
	<rect fill="rgba(0,208,255,255)" x="90" y="30" width="10" height="10"/>
	<rect fill="rgba(0,208,255,255)" x="100" y="30" width="10" height="10"/>
	<rect fill="rgba(0,208,255,255)" x="110" y="30" width="10" height="10"/>
	<rect fill="rgba(0,0,0,255)" x="120" y="30" width="10" height="10"/>
	<rect fill="rgba(0,0,0,255)" x="10" y="40" width="10" height="10"/>
	<rect fill="rgba(229,255,255,255)" x="20" y="40" width="10" height="10"/>
	<rect fill="rgba(229,255,255,255)" x="30" y="40" width="10" height="10"/>
	<rect fill="rgba(229,255,255,255)" x="40" y="40" width="10" height="10"/>
	<rect fill="rgba(229,255,255,255)" x="50" y="40" width="10" height="10"/>
	<rect fill="rgba(1,255,255,255)" x="60" y="40" width="10" height="10"/>
	<rect fill="rgba(1,255,255,255)" x="70" y="40" width="10" height="10"/>
	<rect fill="rgba(1,255,255,255)" x="80" y="40" width="10" height="10"/>
	<rect fill="rgba(0,208,255,255)" x="90" y="40" width="10" height="10"/>
	<rect fill="rgba(0,208,255,255)" x="100" y="40" width="10" height="10"/>
	<rect fill="rgba(0,208,255,255)" x="110" y="40" width="10" height="10"/>
	<rect fill="rgba(0,208,255,255)" x="120" y="40" width="10" height="10"/>
	<rect fill="rgba(0,0,0,255)" x="130" y="40" width="10" height="10"/>
	<rect fill="rgba(0,0,0,255)" x="0" y="50" width="10" height="10"/>
	<rect fill="rgba(229,255,255,255)" x="10" y="50" width="10" height="10"/>
	<rect fill="rgba(229,255,255,255)" x="20" y="50" width="10" height="10"/>
	<rect fill="rgba(229,255,255,255)" x="30" y="50" width="10" height="10"/>
	<rect fill="rgba(229,255,255,255)" x="40" y="50" width="10" height="10"/>
	<rect fill="rgba(1,255,255,255)" x="50" y="50" width="10" height="10"/>
	<rect fill="rgba(1,255,255,255)" x="60" y="50" width="10" height="10"/>
	<rect fill="rgba(1,255,255,255)" x="70" y="50" width="10" height="10"/>
	<rect fill="rgba(1,255,255,255)" x="80" y="50" width="10" height="10"/>
	<rect fill="rgba(1,255,255,255)" x="90" y="50" width="10" height="10"/>
	<rect fill="rgba(0,208,255,255)" x="100" y="50" width="10" height="10"/>
	<rect fill="rgba(0,208,255,255)" x="110" y="50" width="10" height="10"/>
	<rect fill="rgba(0,208,255,255)" x="120" y="50" width="10" height="10"/>
	<rect fill="rgba(0,208,255,255)" x="130" y="50" width="10" height="10"/>
	<rect fill="rgba(0,0,0,255)" x="140" y="50" width="10" height="10"/>
	<rect fill="rgba(0,0,0,255)" x="0" y="60" width="10" height="10"/>
	<rect fill="rgba(0,229,255,255)" x="10" y="60" width="10" height="10"/>
	<rect fill="rgba(0,229,255,255)" x="20" y="60" width="10" height="10"/>
	<rect fill="rgba(229,255,255,255)" x="30" y="60" width="10" height="10"/>
	<rect fill="rgba(229,255,255,255)" x="40" y="60" width="10" height="10"/>
	<rect fill="rgba(1,255,255,255)" x="50" y="60" width="10" height="10"/>
	<rect fill="rgba(1,255,255,255)" x="60" y="60" width="10" height="10"/>
	<rect fill="rgba(1,255,255,255)" x="70" y="60" width="10" height="10"/>
	<rect fill="rgba(1,255,255,255)" x="80" y="60" width="10" height="10"/>
	<rect fill="rgba(1,255,255,255)" x="90" y="60" width="10" height="10"/>
	<rect fill="rgba(0,208,255,255)" x="100" y="60" width="10" height="10"/>
	<rect fill="rgba(0,208,255,255)" x="110" y="60" width="10" height="10"/>
	<rect fill="rgba(0,140,216,255)" x="120" y="60" width="10" height="10"/>
	<rect fill="rgba(0,140,216,255)" x="130" y="60" width="10" height="10"/>
	<rect fill="rgba(0,0,0,255)" x="140" y="60" width="10" height="10"/>
	<rect fill="rgba(0,0,0,255)" x="10" y="70" width="10" height="10"/>
	<rect fill="rgba(0,229,255,255)" x="20" y="70" width="10" height="10"/>
	<rect fill="rgba(0,229,255,255)" x="30" y="70" width="10" height="10"/>
	<rect fill="rgba(0,229,255,255)" x="40" y="70" width="10" height="10"/>
	<rect fill="rgba(0,189,255,255)" x="50" y="70" width="10" height="10"/>
	<rect fill="rgba(0,189,255,255)" x="60" y="70" width="10" height="10"/>
	<rect fill="rgba(0,189,255,255)" x="70" y="70" width="10" height="10"/>
	<rect fill="rgba(0,189,255,255)" x="80" y="70" width="10" height="10"/>
	<rect fill="rgba(0,189,255,255)" x="90" y="70" width="10" height="10"/>
	<rect fill="rgba(0,140,216,255)" x="100" y="70" width="10" height="10"/>
	<rect fill="rgba(0,140,216,255)" x="110" y="70" width="10" height="10"/>
	<rect fill="rgba(0,140,216,255)" x="120" y="70" width="10" height="10"/>
	<rect fill="rgba(0,0,0,255)" x="130" y="70" width="10" height="10"/>
	<rect fill="rgba(0,0,0,255)" x="20" y="80" width="10" height="10"/>
	<rect fill="rgba(0,229,255,255)" x="30" y="80" width="10" height="10"/>
	<rect fill="rgba(0,229,255,255)" x="40" y="80" width="10" height="10"/>
	<rect fill="rgba(0,189,255,255)" x="50" y="80" width="10" height="10"/>
	<rect fill="rgba(0,189,255,255)" x="60" y="80" width="10" height="10"/>
	<rect fill="rgba(0,189,255,255)" x="70" y="80" width="10" height="10"/>
	<rect fill="rgba(0,189,255,255)" x="80" y="80" width="10" height="10"/>
	<rect fill="rgba(0,189,255,255)" x="90" y="80" width="10" height="10"/>
	<rect fill="rgba(0,140,216,255)" x="100" y="80" width="10" height="10"/>
	<rect fill="rgba(0,140,216,255)" x="110" y="80" width="10" height="10"/>
	<rect fill="rgba(0,0,0,255)" x="120" y="80" width="10" height="10"/>
	<rect fill="rgba(0,0,0,255)" x="30" y="90" width="10" height="10"/>
	<rect fill="rgba(0,229,255,255)" x="40" y="90" width="10" height="10"/>
	<rect fill="rgba(0,229,255,255)" x="50" y="90" width="10" height="10"/>
	<rect fill="rgba(0,189,255,255)" x="60" y="90" width="10" height="10"/>
	<rect fill="rgba(0,189,255,255)" x="70" y="90" width="10" height="10"/>
	<rect fill="rgba(0,189,255,255)" x="80" y="90" width="10" height="10"/>
	<rect fill="rgba(0,140,216,255)" x="90" y="90" width="10" height="10"/>
	<rect fill="rgba(0,140,216,255)" x="100" y="90" width="10" height="10"/>
	<rect fill="rgba(0,0,0,255)" x="110" y="90" width="10" height="10"/>
	<rect fill="rgba(0,0,0,255)" x="40" y="100" width="10" height="10"/>
	<rect fill="rgba(0,229,255,255)" x="50" y="100" width="10" height="10"/>
	<rect fill="rgba(0,189,255,255)" x="60" y="100" width="10" height="10"/>
	<rect fill="rgba(0,189,255,255)" x="70" y="100" width="10" height="10"/>
	<rect fill="rgba(0,189,255,255)" x="80" y="100" width="10" height="10"/>
	<rect fill="rgba(0,140,216,255)" x="90" y="100" width="10" height="10"/>
	<rect fill="rgba(0,0,0,255)" x="100" y="100" width="10" height="10"/>
	<rect fill="rgba(0,0,0,255)" x="50" y="110" width="10" height="10"/>
	<rect fill="rgba(0,229,255,255)" x="60" y="110" width="10" height="10"/>
	<rect fill="rgba(0,189,255,255)" x="70" y="110" width="10" height="10"/>
	<rect fill="rgba(0,140,216,255)" x="80" y="110" width="10" height="10"/>
	<rect fill="rgba(0,0,0,255)" x="90" y="110" width="10" height="10"/>
	<rect fill="rgba(0,0,0,255)" x="60" y="120" width="10" height="10"/>
	<rect fill="rgba(0,189,255,255)" x="70" y="120" width="10" height="10"/>
	<rect fill="rgba(0,0,0,255)" x="80" y="120" width="10" height="10"/>
	<rect fill="rgba(0,0,0,255)" x="70" y="130" width="10" height="10"/>
</svg>