<svg xmlns="http://www.w3.org/2000/svg" shape-rendering="crispEdges" viewBox="0 0 256 256" width="256" height="256">
	<rect fill="rgba(64,101,171,255)" x="32" y="0" width="16" height="16"/>
	<rect fill="rgba(64,101,171,255)" x="48" y="0" width="16" height="16"/>
	<rect fill="rgba(64,101,171,255)" x="64" y="0" width="16" height="16"/>
	<rect fill="rgba(64,101,171,255)" x="80" y="0" width="16" height="16"/>
	<rect fill="rgba(64,101,171,255)" x="96" y="0" width="16" height="16"/>
	<rect fill="rgba(64,101,171,255)" x="112" y="0" width="16" height="16"/>
	<rect fill="rgba(64,101,171,255)" x="128" y="0" width="16" height="16"/>
	<rect fill="rgba(64,101,171,255)" x="144" y="0" width="16" height="16"/>
	<rect fill="rgba(64,101,171,255)" x="160" y="0" width="16" height="16"/>
	<rect fill="rgba(64,101,171,255)" x="176" y="0" width="16" height="16"/>
	<rect fill="rgba(64,101,171,255)" x="192" y="0" width="16" height="16"/>
	<rect fill="rgba(64,101,171,255)" x="208" y="0" width="16" height="16"/>
	<rect fill="rgba(64,101,171,255)" x="16" y="16" width="16" height="16"/>
	<rect fill="rgba(56,89,151,255)" x="32" y="16" width="16" height="16"/>
	<rect fill="rgba(56,89,151,255)" x="48" y="16" width="16" height="16"/>
	<rect fill="rgba(56,89,151,255)" x="64" y="16" width="16" height="16"/>
	<rect fill="rgba(56,89,151,255)" x="80" y="16" width="16" height="16"/>
	<rect fill="rgba(56,89,151,255)" x="96" y="16" width="16" height="16"/>
	<rect fill="rgba(56,89,151,255)" x="112" y="16" width="16" height="16"/>
	<rect fill="rgba(56,89,151,255)" x="128" y="16" width="16" height="16"/>
	<rect fill="rgba(56,89,151,255)" x="144" y="16" width="16" height="16"/>
	<rect fill="rgba(56,89,151,255)" x="160" y="16" width="16" height="16"/>
	<rect fill="rgba(56,89,151,255)" x="176" y="16" width="16" height="16"/>
	<rect fill="rgba(56,89,151,255)" x="192" y="16" width="16" height="16"/>
	<rect fill="rgba(56,89,151,255)" x="208" y="16" width="16" height="16"/>
	<rect fill="rgba(56,89,151,255)" x="224" y="16" width="16" height="16"/>
	<rect fill="rgba(64,101,171,255)" x="0" y="32" width="16" height="16"/>
	<rect fill="rgba(56,89,151,255)" x="16" y="32" width="16" height="16"/>
	<rect fill="rgba(56,89,151,255)" x="32" y="32" width="16" height="16"/>
	<rect fill="rgba(56,89,151,255)" x="48" y="32" width="16" height="16"/>
	<rect fill="rgba(56,89,151,255)" x="64" y="32" width="16" height="16"/>
	<rect fill="rgba(56,89,151,255)" x="80" y="32" width="16" height="16"/>
	<rect fill="rgba(56,89,151,255)" x="96" y="32" width="16" height="16"/>
	<rect fill="rgba(56,89,151,255)" x="112" y="32" width="16" height="16"/>
	<rect fill="rgba(56,89,151,255)" x="128" y="32" width="16" height="16"/>
	<rect fill="rgba(56,89,151,255)" x="144" y="32" width="16" height="16"/>
	<rect fill="rgba(56,89,151,255)" x="160" y="32" width="16" height="16"/>
	<rect fill="rgba(56,89,151,255)" x="176" y="32" width="16" height="16"/>
	<rect fill="rgba(56,89,151,255)" x="192" y="32" width="16" height="16"/>
	<rect fill="rgba(56,89,151,255)" x="208" y="32" width="16" height="16"/>
	<rect fill="rgba(56,89,151,255)" x="224" y="32" width="16" height="16"/>
	<rect fill="rgba(48,79,138,255)" x="240" y="32" width="16" height="16"/>
	<rect fill="rgba(64,101,171,255)" x="0" y="48" width="16" height="16"/>
	<rect fill="rgba(56,89,151,255)" x="16" y="48" width="16" height="16"/>
	<rect fill="rgba(56,89,151,255)" x="32" y="48" width="16" height="16"/>
	<rect fill="rgba(56,89,151,255)" x="48" y="48" width="16" height="16"/>
	<rect fill="rgba(56,89,151,255)" x="64" y="48" width="16" height="16"/>
	<rect fill="rgba(56,89,151,255)" x="80" y="48" width="16" height="16"/>
	<rect fill="rgba(56,89,151,255)" x="96" y="48" width="16" height="16"/>
	<rect fill="rgba(56,89,151,255)" x="112" y="48" width="16" height="16"/>
	<rect fill="rgba(56,89,151,255)" x="128" y="48" width="16" height="16"/>
	<rect fill="rgba(56,89,151,255)" x="144" y="48" width="16" height="16"/>
	<rect fill="rgba(56,89,151,255)" x="160" y="48" width="16" height="16"/>
	<rect fill="rgba(56,89,151,255)" x="176" y="48" width="16" height="16"/>
	<rect fill="rgba(56,89,151,255)" x="192" y="48" width="16" height="16"/>
	<rect fill="rgba(56,89,151,255)" x="208" y="48" width="16" height="16"/>
	<rect fill="rgba(56,89,151,255)" x="224" y="48" width="16" height="16"/>
	<rect fill="rgba(48,79,138,255)" x="240" y="48" width="16" height="16"/>
	<rect fill="rgba(64,101,171,255)" x="0" y="64" width="16" height="16"/>
	<rect fill="rgba(56,89,151,255)" x="16" y="64" width="16" height="16"/>
	<rect fill="rgba(56,89,151,255)" x="32" y="64" width="16" height="16"/>
	<rect fill="rgba(56,89,151,255)" x="48" y="64" width="16" height="16"/>
	<rect fill="rgba(56,89,151,255)" x="64" y="64" width="16" height="16"/>
	<rect fill="rgba(56,89,151,255)" x="80" y="64" width="16" height="16"/>
	<rect fill="rgba(56,89,151,255)" x="96" y="64" width="16" height="16"/>
	<rect fill="rgba(56,89,151,255)" x="112" y="64" width="16" height="16"/>
	<rect fill="rgba(56,89,151,255)" x="128" y="64" width="16" height="16"/>
	<rect fill="rgba(87,115,167,255)" x="144" y="64" width="16" height="16"/>
	<rect fill="rgba(105,130,177,255)" x="160" y="64" width="16" height="16"/>
	<rect fill="rgba(105,130,177,255)" x="176" y="64" width="16" height="16"/>
	<rect fill="rgba(105,130,176,255)" x="192" y="64" width="16" height="16"/>
	<rect fill="rgba(56,89,151,255)" x="208" y="64" width="16" height="16"/>
	<rect fill="rgba(56,89,151,255)" x="224" y="64" width="16" height="16"/>
	<rect fill="rgba(48,79,138,255)" x="240" y="64" width="16" height="16"/>
	<rect fill="rgba(64,101,171,255)" x="0" y="80" width="16" height="16"/>
	<rect fill="rgba(56,89,151,255)" x="16" y="80" width="16" height="16"/>
	<rect fill="rgba(56,89,151,255)" x="32" y="80" width="16" height="16"/>
	<rect fill="rgba(56,89,151,255)" x="48" y="80" width="16" height="16"/>
	<rect fill="rgba(56,89,151,255)" x="64" y="80" width="16" height="16"/>
	<rect fill="rgba(56,89,151,255)" x="80" y="80" width="16" height="16"/>
	<rect fill="rgba(56,89,151,255)" x="96" y="80" width="16" height="16"/>
	<rect fill="rgba(56,89,151,255)" x="112" y="80" width="16" height="16"/>
	<rect fill="rgba(91,118,169,255)" x="128" y="80" width="16" height="16"/>
	<rect fill="rgba(204,213,229,255)" x="144" y="80" width="16" height="16"/>
	<rect fill="rgba(255,255,255,255)" x="160" y="80" width="16" height="16"/>
	<rect fill="rgba(255,255,255,255)" x="176" y="80" width="16" height="16"/>
	<rect fill="rgba(252,253,254,255)" x="192" y="80" width="16" height="16"/>
	<rect fill="rgba(56,89,151,255)" x="208" y="80" width="16" height="16"/>
	<rect fill="rgba(56,89,151,255)" x="224" y="80" width="16" height="16"/>
	<rect fill="rgba(48,79,138,255)" x="240" y="80" width="16" height="16"/>
	<rect fill="rgba(64,101,171,255)" x="0" y="96" width="16" height="16"/>
	<rect fill="rgba(56,89,151,255)" x="16" y="96" width="16" height="16"/>
	<rect fill="rgba(56,89,151,255)" x="32" y="96" width="16" height="16"/>
	<rect fill="rgba(56,89,151,255)" x="48" y="96" width="16" height="16"/>
	<rect fill="rgba(56,89,151,255)" x="64" y="96" width="16" height="16"/>
	<rect fill="rgba(56,89,151,255)" x="80" y="96" width="16" height="16"/>
	<rect fill="rgba(56,89,151,255)" x="96" y="96" width="16" height="16"/>
	<rect fill="rgba(56,89,151,255)" x="112" y="96" width="16" height="16"/>
	<rect fill="rgba(168,183,210,255)" x="128" y="96" width="16" height="16"/>
	<rect fill="rgba(255,255,255,255)" x="144" y="96" width="16" height="16"/>
	<rect fill="rgba(203,212,228,255)" x="160" y="96" width="16" height="16"/>
	<rect fill="rgba(180,193,216,255)" x="176" y="96" width="16" height="16"/>
	<rect fill="rgba(179,191,215,255)" x="192" y="96" width="16" height="16"/>
	<rect fill="rgba(56,89,151,255)" x="208" y="96" width="16" height="16"/>
	<rect fill="rgba(56,89,151,255)" x="224" y="96" width="16" height="16"/>
	<rect fill="rgba(48,79,138,255)" x="240" y="96" width="16" height="16"/>
	<rect fill="rgba(64,101,171,255)" x="0" y="112" width="16" height="16"/>
	<rect fill="rgba(56,89,151,255)" x="16" y="112" width="16" height="16"/>
	<rect fill="rgba(56,89,151,255)" x="32" y="112" width="16" height="16"/>
	<rect fill="rgba(56,89,151,255)" x="48" y="112" width="16" height="16"/>
	<rect fill="rgba(56,89,151,255)" x="64" y="112" width="16" height="16"/>
	<rect fill="rgba(56,89,151,255)" x="80" y="112" width="16" height="16"/>
	<rect fill="rgba(56,89,151,255)" x="96" y="112" width="16" height="16"/>
	<rect fill="rgba(56,89,151,255)" x="112" y="112" width="16" height="16"/>
	<rect fill="rgba(168,183,210,255)" x="128" y="112" width="16" height="16"/>
	<rect fill="rgba(255,255,255,255)" x="144" y="112" width="16" height="16"/>
	<rect fill="rgba(116,140,183,255)" x="160" y="112" width="16" height="16"/>
	<rect fill="rgba(56,89,151,255)" x="176" y="112" width="16" height="16"/>
	<rect fill="rgba(56,89,151,255)" x="192" y="112" width="16" height="16"/>
	<rect fill="rgba(56,89,151,255)" x="208" y="112" width="16" height="16"/>
	<rect fill="rgba(56,89,151,255)" x="224" y="112" width="16" height="16"/>
	<rect fill="rgba(48,79,138,255)" x="240" y="112" width="16" height="16"/>
	<rect fill="rgba(64,101,171,255)" x="0" y="128" width="16" height="16"/>
	<rect fill="rgba(56,89,151,255)" x="16" y="128" width="16" height="16"/>
	<rect fill="rgba(56,89,151,255)" x="32" y="128" width="16" height="16"/>
	<rect fill="rgba(56,89,151,255)" x="48" y="128" width="16" height="16"/>
	<rect fill="rgba(56,89,151,255)" x="64" y="128" width="16" height="16"/>
	<rect fill="rgba(56,89,151,255)" x="80" y="128" width="16" height="16"/>
	<rect fill="rgba(99,125,173,255)" x="96" y="128" width="16" height="16"/>
	<rect fill="rgba(155,172,203,255)" x="112" y="128" width="16" height="16"/>
	<rect fill="rgba(211,219,232,255)" x="128" y="128" width="16" height="16"/>
	<rect fill="rgba(255,255,255,255)" x="144" y="128" width="16" height="16"/>
	<rect fill="rgba(185,197,219,255)" x="160" y="128" width="16" height="16"/>
	<rect fill="rgba(155,172,203,255)" x="176" y="128" width="16" height="16"/>
	<rect fill="rgba(154,171,202,255)" x="192" y="128" width="16" height="16"/>
	<rect fill="rgba(56,89,151,255)" x="208" y="128" width="16" height="16"/>
	<rect fill="rgba(56,89,151,255)" x="224" y="128" width="16" height="16"/>
	<rect fill="rgba(48,79,138,255)" x="240" y="128" width="16" height="16"/>
	<rect fill="rgba(64,101,171,255)" x="0" y="144" width="16" height="16"/>
	<rect fill="rgba(56,89,151,255)" x="16" y="144" width="16" height="16"/>
	<rect fill="rgba(56,89,151,255)" x="32" y="144" width="16" height="16"/>
	<rect fill="rgba(56,89,151,255)" x="48" y="144" width="16" height="16"/>
	<rect fill="rgba(56,89,151,255)" x="64" y="144" width="16" height="16"/>
	<rect fill="rgba(56,89,151,255)" x="80" y="144" width="16" height="16"/>
	<rect fill="rgba(142,161,196,255)" x="96" y="144" width="16" height="16"/>
	<rect fill="rgba(255,255,255,255)" x="112" y="144" width="16" height="16"/>
	<rect fill="rgba(255,255,255,255)" x="128" y="144" width="16" height="16"/>
	<rect fill="rgba(255,255,255,255)" x="144" y="144" width="16" height="16"/>
	<rect fill="rgba(255,255,255,255)" x="160" y="144" width="16" height="16"/>
	<rect fill="rgba(254,254,255,255)" x="176" y="144" width="16" height="16"/>
	<rect fill="rgba(159,175,205,255)" x="192" y="144" width="16" height="16"/>
	<rect fill="rgba(56,89,151,255)" x="208" y="144" width="16" height="16"/>
	<rect fill="rgba(56,89,151,255)" x="224" y="144" width="16" height="16"/>
	<rect fill="rgba(48,79,138,255)" x="240" y="144" width="16" height="16"/>
	<rect fill="rgba(64,101,171,255)" x="0" y="160" width="16" height="16"/>
	<rect fill="rgba(56,89,151,255)" x="16" y="160" width="16" height="16"/>
	<rect fill="rgba(56,89,151,255)" x="32" y="160" width="16" height="16"/>
	<rect fill="rgba(56,89,151,255)" x="48" y="160" width="16" height="16"/>
	<rect fill="rgba(56,89,151,255)" x="64" y="160" width="16" height="16"/>
	<rect fill="rgba(56,89,151,255)" x="80" y="160" width="16" height="16"/>
	<rect fill="rgba(88,116,168,255)" x="96" y="160" width="16" height="16"/>
	<rect fill="rgba(129,150,189,255)" x="112" y="160" width="16" height="16"/>
	<rect fill="rgba(200,209,226,255)" x="128" y="160" width="16" height="16"/>
	<rect fill="rgba(255,255,255,255)" x="144" y="160" width="16" height="16"/>
	<rect fill="rgba(167,182,209,255)" x="160" y="160" width="16" height="16"/>
	<rect fill="rgba(129,150,189,255)" x="176" y="160" width="16" height="16"/>
	<rect fill="rgba(68,99,157,255)" x="192" y="160" width="16" height="16"/>
	<rect fill="rgba(56,89,151,255)" x="208" y="160" width="16" height="16"/>
	<rect fill="rgba(56,89,151,255)" x="224" y="160" width="16" height="16"/>
	<rect fill="rgba(48,79,138,255)" x="240" y="160" width="16" height="16"/>
	<rect fill="rgba(64,101,171,255)" x="0" y="176" width="16" height="16"/>
	<rect fill="rgba(56,89,151,255)" x="16" y="176" width="16" height="16"/>
	<rect fill="rgba(56,89,151,255)" x="32" y="176" width="16" height="16"/>
	<rect fill="rgba(56,89,151,255)" x="48" y="176" width="16" height="16"/>
	<rect fill="rgba(56,89,151,255)" x="64" y="176" width="16" height="16"/>
	<rect fill="rgba(56,89,151,255)" x="80" y="176" width="16" height="16"/>
	<rect fill="rgba(56,89,151,255)" x="96" y="176" width="16" height="16"/>
	<rect fill="rgba(56,89,151,255)" x="112" y="176" width="16" height="16"/>
	<rect fill="rgba(168,183,210,255)" x="128" y="176" width="16" height="16"/>
	<rect fill="rgba(255,255,255,255)" x="144" y="176" width="16" height="16"/>
	<rect fill="rgba(116,140,183,255)" x="160" y="176" width="16" height="16"/>
	<rect fill="rgba(56,89,151,255)" x="176" y="176" width="16" height="16"/>
	<rect fill="rgba(56,89,151,255)" x="192" y="176" width="16" height="16"/>
	<rect fill="rgba(56,89,151,255)" x="208" y="176" width="16" height="16"/>
	<rect fill="rgba(56,89,151,255)" x="224" y="176" width="16" height="16"/>
	<rect fill="rgba(48,79,138,255)" x="240" y="176" width="16" height="16"/>
	<rect fill="rgba(64,101,171,255)" x="0" y="192" width="16" height="16"/>
	<rect fill="rgba(56,89,151,255)" x="16" y="192" width="16" height="16"/>
	<rect fill="rgba(56,89,151,255)" x="32" y="192" width="16" height="16"/>
	<rect fill="rgba(56,89,151,255)" x="48" y="192" width="16" height="16"/>
	<rect fill="rgba(56,89,151,255)" x="64" y="192" width="16" height="16"/>
	<rect fill="rgba(56,89,151,255)" x="80" y="192" width="16" height="16"/>
	<rect fill="rgba(56,89,151,255)" x="96" y="192" width="16" height="16"/>
	<rect fill="rgba(56,89,151,255)" x="112" y="192" width="16" height="16"/>
	<rect fill="rgba(168,183,210,255)" x="128" y="192" width="16" height="16"/>
	<rect fill="rgba(255,255,255,255)" x="144" y="192" width="16" height="16"/>
	<rect fill="rgba(116,140,183,255)" x="160" y="192" width="16" height="16"/>
	<rect fill="rgba(56,89,151,255)" x="176" y="192" width="16" height="16"/>
	<rect fill="rgba(56,89,151,255)" x="192" y="192" width="16" height="16"/>
	<rect fill="rgba(56,89,151,255)" x="208" y="192" width="16" height="16"/>
	<rect fill="rgba(56,89,151,255)" x="224" y="192" width="16" height="16"/>
	<rect fill="rgba(48,79,138,255)" x="240" y="192" width="16" height="16"/>
	<rect fill="rgba(64,101,171,255)" x="0" y="208" width="16" height="16"/>
	<rect fill="rgba(56,89,151,255)" x="16" y="208" width="16" height="16"/>
	<rect fill="rgba(56,89,151,255)" x="32" y="208" width="16" height="16"/>
	<rect fill="rgba(56,89,151,255)" x="48" y="208" width="16" height="16"/>
	<rect fill="rgba(56,89,151,255)" x="64" y="208" width="16" height="16"/>
	<rect fill="rgba(56,89,151,255)" x="80" y="208" width="16" height="16"/>
	<rect fill="rgba(56,89,151,255)" x="96" y="208" width="16" height="16"/>
	<rect fill="rgba(56,89,151,255)" x="112" y="208" width="16" height="16"/>
	<rect fill="rgba(168,183,210,255)" x="128" y="208" width="16" height="16"/>
	<rect fill="rgba(255,255,255,255)" x="144" y="208" width="16" height="16"/>
	<rect fill="rgba(116,140,183,255)" x="160" y="208" width="16" height="16"/>
	<rect fill="rgba(56,89,151,255)" x="176" y="208" width="16" height="16"/>
	<rect fill="rgba(56,89,151,255)" x="192" y="208" width="16" height="16"/>
	<rect fill="rgba(56,89,151,255)" x="208" y="208" width="16" height="16"/>
	<rect fill="rgba(56,89,151,255)" x="224" y="208" width="16" height="16"/>
	<rect fill="rgba(48,79,138,255)" x="240" y="208" width="16" height="16"/>
	<rect fill="rgba(56,89,151,255)" x="16" y="224" width="16" height="16"/>
	<rect fill="rgba(56,89,151,255)" x="32" y="224" width="16" height="16"/>
	<rect fill="rgba(56,89,151,255)" x="48" y="224" width="16" height="16"/>
	<rect fill="rgba(56,89,151,255)" x="64" y="224" width="16" height="16"/>
	<rect fill="rgba(56,89,151,255)" x="80" y="224" width="16" height="16"/>
	<rect fill="rgba(56,89,151,255)" x="96" y="224" width="16" height="16"/>
	<rect fill="rgba(56,89,151,255)" x="112" y="224" width="16" height="16"/>
	<rect fill="rgba(168,182,209,255)" x="128" y="224" width="16" height="16"/>
	<rect fill="rgba(254,254,254,255)" x="144" y="224" width="16" height="16"/>
	<rect fill="rgba(116,139,182,255)" x="160" y="224" width="16" height="16"/>
	<rect fill="rgba(56,89,151,255)" x="176" y="224" width="16" height="16"/>
	<rect fill="rgba(56,89,150,255)" x="192" y="224" width="16" height="16"/>
	<rect fill="rgba(56,89,151,255)" x="208" y="224" width="16" height="16"/>
	<rect fill="rgba(48,79,138,255)" x="224" y="224" width="16" height="16"/>
	<rect fill="rgba(48,79,138,255)" x="32" y="240" width="16" height="16"/>
	<rect fill="rgba(48,79,138,255)" x="48" y="240" width="16" height="16"/>
	<rect fill="rgba(48,79,138,255)" x="64" y="240" width="16" height="16"/>
	<rect fill="rgba(48,79,138,255)" x="80" y="240" width="16" height="16"/>
	<rect fill="rgba(48,79,138,255)" x="96" y="240" width="16" height="16"/>
	<rect fill="rgba(48,79,138,255)" x="112" y="240" width="16" height="16"/>
	<rect fill="rgba(141,154,179,255)" x="128" y="240" width="16" height="16"/>
	<rect fill="rgba(211,211,211,255)" x="144" y="240" width="16" height="16"/>
	<rect fill="rgba(98,120,160,255)" x="160" y="240" width="16" height="16"/>
	<rect fill="rgba(48,79,138,255)" x="176" y="240" width="16" height="16"/>
	<rect fill="rgba(48,79,138,255)" x="192" y="240" width="16" height="16"/>
	<rect fill="rgba(48,79,138,255)" x="208" y="240" width="16" height="16"/>
</svg>