<svg xmlns="http://www.w3.org/2000/svg" shape-rendering="crispEdges" viewBox="0 0 256 256" width="256" height="256">
	<rect fill="rgba(204,204,204,255)" x="112" y="16" width="16" height="16"/>
	<rect fill="rgba(204,204,204,255)" x="128" y="16" width="16" height="16"/>
	<rect fill="rgba(204,204,204,255)" x="96" y="32" width="16" height="16"/>
	<rect fill="rgba(204,204,204,255)" x="112" y="32" width="16" height="16"/>
	<rect fill="rgba(204,204,204,255)" x="128" y="32" width="16" height="16"/>
	<rect fill="rgba(204,204,204,255)" x="144" y="32" width="16" height="16"/>
	<rect fill="rgba(204,204,204,255)" x="80" y="48" width="16" height="16"/>
	<rect fill="rgba(204,204,204,255)" x="96" y="48" width="16" height="16"/>
	<rect fill="rgba(238,238,238,255)" x="144" y="48" width="16" height="16"/>
	<rect fill="rgba(238,238,238,255)" x="160" y="48" width="16" height="16"/>
	<rect fill="rgba(204,204,204,255)" x="64" y="64" width="16" height="16"/>
	<rect fill="rgba(204,204,204,255)" x="80" y="64" width="16" height="16"/>
	<rect fill="rgba(238,238,238,255)" x="160" y="64" width="16" height="16"/>
	<rect fill="rgba(238,238,238,255)" x="176" y="64" width="16" height="16"/>
	<rect fill="rgba(204,204,204,255)" x="48" y="80" width="16" height="16"/>
	<rect fill="rgba(204,204,204,255)" x="64" y="80" width="16" height="16"/>
	<rect fill="rgba(204,204,204,255)" x="112" y="80" width="16" height="16"/>
	<rect fill="rgba(204,204,204,255)" x="128" y="80" width="16" height="16"/>
	<rect fill="rgba(238,238,238,255)" x="176" y="80" width="16" height="16"/>
	<rect fill="rgba(238,238,238,255)" x="192" y="80" width="16" height="16"/>
	<rect fill="rgba(204,204,204,255)" x="32" y="96" width="16" height="16"/>
	<rect fill="rgba(204,204,204,255)" x="48" y="96" width="16" height="16"/>
	<rect fill="rgba(204,204,204,255)" x="96" y="96" width="16" height="16"/>
	<rect fill="rgba(204,204,204,255)" x="112" y="96" width="16" height="16"/>
	<rect fill="rgba(204,204,204,255)" x="128" y="96" width="16" height="16"/>
	<rect fill="rgba(204,204,204,255)" x="144" y="96" width="16" height="16"/>
	<rect fill="rgba(238,238,238,255)" x="192" y="96" width="16" height="16"/>
	<rect fill="rgba(238,238,238,255)" x="208" y="96" width="16" height="16"/>
	<rect fill="rgba(204,204,204,255)" x="16" y="112" width="16" height="16"/>
	<rect fill="rgba(204,204,204,255)" x="32" y="112" width="16" height="16"/>
	<rect fill="rgba(204,204,204,255)" x="80" y="112" width="16" height="16"/>
	<rect fill="rgba(204,204,204,255)" x="96" y="112" width="16" height="16"/>
	<rect fill="rgba(238,238,238,255)" x="112" y="112" width="16" height="16"/>
	<rect fill="rgba(238,238,238,255)" x="128" y="112" width="16" height="16"/>
	<rect fill="rgba(238,238,238,255)" x="144" y="112" width="16" height="16"/>
	<rect fill="rgba(238,238,238,255)" x="160" y="112" width="16" height="16"/>
	<rect fill="rgba(238,238,238,255)" x="208" y="112" width="16" height="16"/>
	<rect fill="rgba(238,238,238,255)" x="224" y="112" width="16" height="16"/>
	<rect fill="rgba(204,204,204,255)" x="16" y="128" width="16" height="16"/>
	<rect fill="rgba(204,204,204,255)" x="32" y="128" width="16" height="16"/>
	<rect fill="rgba(204,204,204,255)" x="80" y="128" width="16" height="16"/>
	<rect fill="rgba(204,204,204,255)" x="96" y="128" width="16" height="16"/>
	<rect fill="rgba(238,238,238,255)" x="112" y="128" width="16" height="16"/>
	<rect fill="rgba(238,238,238,255)" x="128" y="128" width="16" height="16"/>
	<rect fill="rgba(238,238,238,255)" x="144" y="128" width="16" height="16"/>
	<rect fill="rgba(238,238,238,255)" x="160" y="128" width="16" height="16"/>
	<rect fill="rgba(238,238,238,255)" x="208" y="128" width="16" height="16"/>
	<rect fill="rgba(238,238,238,255)" x="224" y="128" width="16" height="16"/>
	<rect fill="rgba(204,204,204,255)" x="16" y="144" width="16" height="16"/>
	<rect fill="rgba(204,204,204,255)" x="64" y="144" width="16" height="16"/>
	<rect fill="rgba(204,204,204,255)" x="80" y="144" width="16" height="16"/>
	<rect fill="rgba(238,238,238,255)" x="96" y="144" width="16" height="16"/>
	<rect fill="rgba(238,238,238,255)" x="112" y="144" width="16" height="16"/>
	<rect fill="rgba(238,238,238,255)" x="128" y="144" width="16" height="16"/>
	<rect fill="rgba(238,238,238,255)" x="144" y="144" width="16" height="16"/>
	<rect fill="rgba(238,238,238,255)" x="160" y="144" width="16" height="16"/>
	<rect fill="rgba(238,238,238,255)" x="176" y="144" width="16" height="16"/>
	<rect fill="rgba(238,238,238,255)" x="224" y="144" width="16" height="16"/>
	<rect fill="rgba(204,204,204,255)" x="48" y="160" width="16" height="16"/>
	<rect fill="rgba(204,204,204,255)" x="64" y="160" width="16" height="16"/>
	<rect fill="rgba(238,238,238,255)" x="80" y="160" width="16" height="16"/>
	<rect fill="rgba(238,238,238,255)" x="96" y="160" width="16" height="16"/>
	<rect fill="rgba(238,238,238,255)" x="112" y="160" width="16" height="16"/>
	<rect fill="rgba(238,238,238,255)" x="128" y="160" width="16" height="16"/>
	<rect fill="rgba(238,238,238,255)" x="144" y="160" width="16" height="16"/>
	<rect fill="rgba(238,238,238,255)" x="160" y="160" width="16" height="16"/>
	<rect fill="rgba(238,238,238,255)" x="176" y="160" width="16" height="16"/>
	<rect fill="rgba(238,238,238,255)" x="192" y="160" width="16" height="16"/>
	<rect fill="rgba(204,204,204,255)" x="48" y="176" width="16" height="16"/>
	<rect fill="rgba(238,238,238,255)" x="64" y="176" width="16" height="16"/>
	<rect fill="rgba(238,238,238,255)" x="80" y="176" width="16" height="16"/>
	<rect fill="rgba(238,238,238,255)" x="96" y="176" width="16" height="16"/>
	<rect fill="rgba(238,238,238,255)" x="112" y="176" width="16" height="16"/>
	<rect fill="rgba(238,238,238,255)" x="128" y="176" width="16" height="16"/>
	<rect fill="rgba(238,238,238,255)" x="144" y="176" width="16" height="16"/>
	<rect fill="rgba(238,238,238,255)" x="160" y="176" width="16" height="16"/>
	<rect fill="rgba(238,238,238,255)" x="176" y="176" width="16" height="16"/>
	<rect fill="rgba(238,238,238,255)" x="192" y="176" width="16" height="16"/>
	<rect fill="rgba(238,238,238,255)" x="48" y="192" width="16" height="16"/>
	<rect fill="rgba(238,238,238,255)" x="64" y="192" width="16" height="16"/>
	<rect fill="rgba(238,238,238,255)" x="80" y="192" width="16" height="16"/>
	<rect fill="rgba(238,238,238,255)" x="160" y="192" width="16" height="16"/>
	<rect fill="rgba(238,238,238,255)" x="176" y="192" width="16" height="16"/>
	<rect fill="rgba(238,238,238,255)" x="192" y="192" width="16" height="16"/>
	<rect fill="rgba(238,238,238,255)" x="48" y="208" width="16" height="16"/>
	<rect fill="rgba(238,238,238,255)" x="64" y="208" width="16" height="16"/>
	<rect fill="rgba(238,238,238,255)" x="80" y="208" width="16" height="16"/>
	<rect fill="rgba(238,238,238,255)" x="160" y="208" width="16" height="16"/>
	<rect fill="rgba(238,238,238,255)" x="176" y="208" width="16" height="16"/>
	<rect fill="rgba(238,238,238,255)" x="192" y="208" width="16" height="16"/>
	<rect fill="rgba(238,238,238,255)" x="48" y="224" width="16" height="16"/>
	<rect fill="rgba(238,238,238,255)" x="64" y="224" width="16" height="16"/>
	<rect fill="rgba(238,238,238,255)" x="80" y="224" width="16" height="16"/>
	<rect fill="rgba(238,238,238,255)" x="160" y="224" width="16" height="16"/>
	<rect fill="rgba(238,238,238,255)" x="176" y="224" width="16" height="16"/>
	<rect fill="rgba(238,238,238,255)" x="192" y="224" width="16" height="16"/>
</svg>