<?xml version="1.0"?><svg xmlns="http://www.w3.org/2000/svg" width="150" height="150">
	<rect class="color-0" x="50" y="10" width="10" height="10"/>
	<rect class="color-0" x="60" y="10" width="10" height="10"/>
	<rect class="color-0" x="70" y="10" width="10" height="10"/>
	<rect class="color-1" x="80" y="10" width="10" height="10"/>
	<rect class="color-1" x="90" y="10" width="10" height="10"/>
	<rect class="color-1" x="100" y="10" width="10" height="10"/>
	<rect class="color-1" x="110" y="10" width="10" height="10"/>
	<rect class="color-0" x="30" y="20" width="10" height="10"/>
	<rect class="color-0" x="40" y="20" width="10" height="10"/>
	<rect class="color-0" x="50" y="20" width="10" height="10"/>
	<rect class="color-1" x="60" y="20" width="10" height="10"/>
	<rect class="color-1" x="70" y="20" width="10" height="10"/>
	<rect class="color-1" x="80" y="20" width="10" height="10"/>
	<rect class="color-0" x="90" y="20" width="10" height="10"/>
	<rect class="color-0" x="100" y="20" width="10" height="10"/>
	<rect class="color-0" x="110" y="20" width="10" height="10"/>
	<rect class="color-1" x="120" y="20" width="10" height="10"/>
	<rect class="color-0" x="20" y="30" width="10" height="10"/>
	<rect class="color-0" x="30" y="30" width="10" height="10"/>
	<rect class="color-0" x="40" y="30" width="10" height="10"/>
	<rect class="color-1" x="50" y="30" width="10" height="10"/>
	<rect class="color-1" x="60" y="30" width="10" height="10"/>
	<rect class="color-1" x="70" y="30" width="10" height="10"/>
	<rect class="color-0" x="80" y="30" width="10" height="10"/>
	<rect class="color-0" x="90" y="30" width="10" height="10"/>
	<rect class="color-0" x="100" y="30" width="10" height="10"/>
	<rect class="color-0" x="110" y="30" width="10" height="10"/>
	<rect class="color-0" x="120" y="30" width="10" height="10"/>
	<rect class="color-0" x="20" y="40" width="10" height="10"/>
	<rect class="color-0" x="30" y="40" width="10" height="10"/>
	<rect class="color-1" x="40" y="40" width="10" height="10"/>
	<rect class="color-1" x="50" y="40" width="10" height="10"/>
	<rect class="color-0" x="100" y="40" width="10" height="10"/>
	<rect class="color-0" x="110" y="40" width="10" height="10"/>
	<rect class="color-0" x="120" y="40" width="10" height="10"/>
	<rect class="color-0" x="10" y="50" width="10" height="10"/>
	<rect class="color-0" x="20" y="50" width="10" height="10"/>
	<rect class="color-1" x="30" y="50" width="10" height="10"/>
	<rect class="color-1" x="40" y="50" width="10" height="10"/>
	<rect class="color-0" x="110" y="50" width="10" height="10"/>
	<rect class="color-0" x="120" y="50" width="10" height="10"/>
	<rect class="color-0" x="130" y="50" width="10" height="10"/>
	<rect class="color-0" x="10" y="60" width="10" height="10"/>
	<rect class="color-1" x="20" y="60" width="10" height="10"/>
	<rect class="color-1" x="30" y="60" width="10" height="10"/>
	<rect class="color-0" x="40" y="60" width="10" height="10"/>
	<rect class="color-0" x="50" y="60" width="10" height="10"/>
	<rect class="color-0" x="60" y="60" width="10" height="10"/>
	<rect class="color-0" x="70" y="60" width="10" height="10"/>
	<rect class="color-0" x="80" y="60" width="10" height="10"/>
	<rect class="color-0" x="90" y="60" width="10" height="10"/>
	<rect class="color-0" x="100" y="60" width="10" height="10"/>
	<rect class="color-0" x="110" y="60" width="10" height="10"/>
	<rect class="color-0" x="120" y="60" width="10" height="10"/>
	<rect class="color-0" x="130" y="60" width="10" height="10"/>
	<rect class="color-0" x="10" y="70" width="10" height="10"/>
	<rect class="color-1" x="20" y="70" width="10" height="10"/>
	<rect class="color-1" x="30" y="70" width="10" height="10"/>
	<rect class="color-0" x="40" y="70" width="10" height="10"/>
	<rect class="color-0" x="50" y="70" width="10" height="10"/>
	<rect class="color-0" x="60" y="70" width="10" height="10"/>
	<rect class="color-0" x="70" y="70" width="10" height="10"/>
	<rect class="color-0" x="80" y="70" width="10" height="10"/>
	<rect class="color-0" x="90" y="70" width="10" height="10"/>
	<rect class="color-0" x="100" y="70" width="10" height="10"/>
	<rect class="color-0" x="110" y="70" width="10" height="10"/>
	<rect class="color-0" x="120" y="70" width="10" height="10"/>
	<rect class="color-0" x="130" y="70" width="10" height="10"/>
	<rect class="color-1" x="10" y="80" width="10" height="10"/>
	<rect class="color-1" x="20" y="80" width="10" height="10"/>
	<rect class="color-0" x="30" y="80" width="10" height="10"/>
	<rect class="color-1" x="10" y="90" width="10" height="10"/>
	<rect class="color-1" x="20" y="90" width="10" height="10"/>
	<rect class="color-0" x="30" y="90" width="10" height="10"/>
	<rect class="color-1" x="10" y="100" width="10" height="10"/>
	<rect class="color-0" x="20" y="100" width="10" height="10"/>
	<rect class="color-0" x="30" y="100" width="10" height="10"/>
	<rect class="color-0" x="40" y="100" width="10" height="10"/>
	<rect class="color-0" x="100" y="100" width="10" height="10"/>
	<rect class="color-0" x="110" y="100" width="10" height="10"/>
	<rect class="color-0" x="120" y="100" width="10" height="10"/>
	<rect class="color-1" x="10" y="110" width="10" height="10"/>
	<rect class="color-0" x="20" y="110" width="10" height="10"/>
	<rect class="color-0" x="30" y="110" width="10" height="10"/>
	<rect class="color-0" x="40" y="110" width="10" height="10"/>
	<rect class="color-0" x="50" y="110" width="10" height="10"/>
	<rect class="color-0" x="60" y="110" width="10" height="10"/>
	<rect class="color-0" x="80" y="110" width="10" height="10"/>
	<rect class="color-0" x="90" y="110" width="10" height="10"/>
	<rect class="color-0" x="100" y="110" width="10" height="10"/>
	<rect class="color-0" x="110" y="110" width="10" height="10"/>
	<rect class="color-0" x="120" y="110" width="10" height="10"/>
	<rect class="color-1" x="20" y="120" width="10" height="10"/>
	<rect class="color-0" x="30" y="120" width="10" height="10"/>
	<rect class="color-0" x="40" y="120" width="10" height="10"/>
	<rect class="color-0" x="50" y="120" width="10" height="10"/>
	<rect class="color-0" x="60" y="120" width="10" height="10"/>
	<rect class="color-0" x="70" y="120" width="10" height="10"/>
	<rect class="color-0" x="80" y="120" width="10" height="10"/>
	<rect class="color-0" x="90" y="120" width="10" height="10"/>
	<rect class="color-0" x="100" y="120" width="10" height="10"/>
	<rect class="color-0" x="110" y="120" width="10" height="10"/>
	<rect class="color-1" x="30" y="130" width="10" height="10"/>
	<rect class="color-1" x="40" y="130" width="10" height="10"/>
	<rect class="color-0" x="50" y="130" width="10" height="10"/>
	<rect class="color-0" x="60" y="130" width="10" height="10"/>
	<rect class="color-0" x="70" y="130" width="10" height="10"/>
	<rect class="color-0" x="80" y="130" width="10" height="10"/>
	<rect class="color-0" x="90" y="130" width="10" height="10"/>
	<style>
	:root {
		--pixel-icon-internet-explorer-color-0: rgba(0,134,255,255);
		--pixel-icon-internet-explorer-color-1: rgba(217,228,16,255);
	}
	.color-0 { fill: var(--pixel-icon-internet-explorer-color-0); }
	.color-1 { fill: var(--pixel-icon-internet-explorer-color-1); }
	</style>
</svg>