<svg xmlns="http://www.w3.org/2000/svg" shape-rendering="crispEdges" viewBox="0 0 240 240" width="240" height="240">
	<rect fill="rgba(38,182,227,255)" x="32" y="0" width="16" height="16"/>
	<rect fill="rgba(38,182,227,255)" x="48" y="0" width="16" height="16"/>
	<rect fill="rgba(38,182,227,255)" x="64" y="0" width="16" height="16"/>
	<rect fill="rgba(38,182,227,255)" x="80" y="0" width="16" height="16"/>
	<rect fill="rgba(38,182,227,255)" x="96" y="0" width="16" height="16"/>
	<rect fill="rgba(38,182,227,255)" x="112" y="0" width="16" height="16"/>
	<rect fill="rgba(38,182,227,255)" x="128" y="0" width="16" height="16"/>
	<rect fill="rgba(38,182,227,255)" x="144" y="0" width="16" height="16"/>
	<rect fill="rgba(38,182,227,255)" x="160" y="0" width="16" height="16"/>
	<rect fill="rgba(38,182,227,255)" x="176" y="0" width="16" height="16"/>
	<rect fill="rgba(38,182,227,255)" x="192" y="0" width="16" height="16"/>
	<rect fill="rgba(38,182,227,255)" x="16" y="16" width="16" height="16"/>
	<rect fill="rgba(1,170,222,255)" x="32" y="16" width="16" height="16"/>
	<rect fill="rgba(1,170,222,255)" x="48" y="16" width="16" height="16"/>
	<rect fill="rgba(1,170,222,255)" x="64" y="16" width="16" height="16"/>
	<rect fill="rgba(1,170,222,255)" x="80" y="16" width="16" height="16"/>
	<rect fill="rgba(1,170,222,255)" x="96" y="16" width="16" height="16"/>
	<rect fill="rgba(1,170,222,255)" x="112" y="16" width="16" height="16"/>
	<rect fill="rgba(1,170,222,255)" x="128" y="16" width="16" height="16"/>
	<rect fill="rgba(1,170,222,255)" x="144" y="16" width="16" height="16"/>
	<rect fill="rgba(1,170,222,255)" x="160" y="16" width="16" height="16"/>
	<rect fill="rgba(1,170,222,255)" x="176" y="16" width="16" height="16"/>
	<rect fill="rgba(1,170,222,255)" x="192" y="16" width="16" height="16"/>
	<rect fill="rgba(1,170,222,255)" x="208" y="16" width="16" height="16"/>
	<rect fill="rgba(38,182,227,255)" x="0" y="32" width="16" height="16"/>
	<rect fill="rgba(1,170,222,255)" x="16" y="32" width="16" height="16"/>
	<rect fill="rgba(0,170,222,255)" x="32" y="32" width="16" height="16"/>
	<rect fill="rgba(0,170,222,255)" x="48" y="32" width="16" height="16"/>
	<rect fill="rgba(0,170,222,255)" x="64" y="32" width="16" height="16"/>
	<rect fill="rgba(0,170,222,255)" x="80" y="32" width="16" height="16"/>
	<rect fill="rgba(0,170,222,255)" x="96" y="32" width="16" height="16"/>
	<rect fill="rgba(0,170,222,255)" x="112" y="32" width="16" height="16"/>
	<rect fill="rgba(1,170,222,255)" x="128" y="32" width="16" height="16"/>
	<rect fill="rgba(48,185,227,255)" x="144" y="32" width="16" height="16"/>
	<rect fill="rgba(15,174,224,255)" x="160" y="32" width="16" height="16"/>
	<rect fill="rgba(36,181,226,255)" x="176" y="32" width="16" height="16"/>
	<rect fill="rgba(8,172,223,255)" x="192" y="32" width="16" height="16"/>
	<rect fill="rgba(1,170,222,255)" x="208" y="32" width="16" height="16"/>
	<rect fill="rgba(0,143,188,255)" x="224" y="32" width="16" height="16"/>
	<rect fill="rgba(38,182,227,255)" x="0" y="48" width="16" height="16"/>
	<rect fill="rgba(1,170,222,255)" x="16" y="48" width="16" height="16"/>
	<rect fill="rgba(0,170,222,255)" x="32" y="48" width="16" height="16"/>
	<rect fill="rgba(0,170,222,255)" x="48" y="48" width="16" height="16"/>
	<rect fill="rgba(0,170,222,255)" x="64" y="48" width="16" height="16"/>
	<rect fill="rgba(0,170,222,255)" x="80" y="48" width="16" height="16"/>
	<rect fill="rgba(0,170,222,255)" x="96" y="48" width="16" height="16"/>
	<rect fill="rgba(1,170,222,255)" x="112" y="48" width="16" height="16"/>
	<rect fill="rgba(168,223,241,255)" x="128" y="48" width="16" height="16"/>
	<rect fill="rgba(249,249,250,255)" x="144" y="48" width="16" height="16"/>
	<rect fill="rgba(119,208,235,255)" x="160" y="48" width="16" height="16"/>
	<rect fill="rgba(202,234,245,255)" x="176" y="48" width="16" height="16"/>
	<rect fill="rgba(92,199,232,255)" x="192" y="48" width="16" height="16"/>
	<rect fill="rgba(6,171,222,255)" x="208" y="48" width="16" height="16"/>
	<rect fill="rgba(0,144,189,255)" x="224" y="48" width="16" height="16"/>
	<rect fill="rgba(38,182,227,255)" x="0" y="64" width="16" height="16"/>
	<rect fill="rgba(1,170,222,255)" x="16" y="64" width="16" height="16"/>
	<rect fill="rgba(77,194,231,255)" x="32" y="64" width="16" height="16"/>
	<rect fill="rgba(78,195,231,255)" x="48" y="64" width="16" height="16"/>
	<rect fill="rgba(54,187,228,255)" x="64" y="64" width="16" height="16"/>
	<rect fill="rgba(0,170,222,255)" x="80" y="64" width="16" height="16"/>
	<rect fill="rgba(0,170,222,255)" x="96" y="64" width="16" height="16"/>
	<rect fill="rgba(125,209,236,255)" x="112" y="64" width="16" height="16"/>
	<rect fill="rgba(248,249,250,255)" x="128" y="64" width="16" height="16"/>
	<rect fill="rgba(248,249,250,255)" x="144" y="64" width="16" height="16"/>
	<rect fill="rgba(248,249,250,255)" x="160" y="64" width="16" height="16"/>
	<rect fill="rgba(248,249,250,255)" x="176" y="64" width="16" height="16"/>
	<rect fill="rgba(182,228,242,255)" x="192" y="64" width="16" height="16"/>
	<rect fill="rgba(1,170,222,255)" x="208" y="64" width="16" height="16"/>
	<rect fill="rgba(0,144,189,255)" x="224" y="64" width="16" height="16"/>
	<rect fill="rgba(38,182,227,255)" x="0" y="80" width="16" height="16"/>
	<rect fill="rgba(1,170,222,255)" x="16" y="80" width="16" height="16"/>
	<rect fill="rgba(173,225,241,255)" x="32" y="80" width="16" height="16"/>
	<rect fill="rgba(248,249,250,255)" x="48" y="80" width="16" height="16"/>
	<rect fill="rgba(200,234,245,255)" x="64" y="80" width="16" height="16"/>
	<rect fill="rgba(93,199,233,255)" x="80" y="80" width="16" height="16"/>
	<rect fill="rgba(93,199,233,255)" x="96" y="80" width="16" height="16"/>
	<rect fill="rgba(171,224,241,255)" x="112" y="80" width="16" height="16"/>
	<rect fill="rgba(248,249,250,255)" x="128" y="80" width="16" height="16"/>
	<rect fill="rgba(248,249,250,255)" x="144" y="80" width="16" height="16"/>
	<rect fill="rgba(248,249,250,255)" x="160" y="80" width="16" height="16"/>
	<rect fill="rgba(178,227,242,255)" x="176" y="80" width="16" height="16"/>
	<rect fill="rgba(1,170,222,255)" x="192" y="80" width="16" height="16"/>
	<rect fill="rgba(0,169,221,255)" x="208" y="80" width="16" height="16"/>
	<rect fill="rgba(0,144,189,255)" x="224" y="80" width="16" height="16"/>
	<rect fill="rgba(38,182,227,255)" x="0" y="96" width="16" height="16"/>
	<rect fill="rgba(1,170,222,255)" x="16" y="96" width="16" height="16"/>
	<rect fill="rgba(27,178,225,255)" x="32" y="96" width="16" height="16"/>
	<rect fill="rgba(167,223,241,255)" x="48" y="96" width="16" height="16"/>
	<rect fill="rgba(248,249,250,255)" x="64" y="96" width="16" height="16"/>
	<rect fill="rgba(248,249,250,255)" x="80" y="96" width="16" height="16"/>
	<rect fill="rgba(248,249,250,255)" x="96" y="96" width="16" height="16"/>
	<rect fill="rgba(248,249,250,255)" x="112" y="96" width="16" height="16"/>
	<rect fill="rgba(248,249,250,255)" x="128" y="96" width="16" height="16"/>
	<rect fill="rgba(248,249,250,255)" x="144" y="96" width="16" height="16"/>
	<rect fill="rgba(248,249,250,255)" x="160" y="96" width="16" height="16"/>
	<rect fill="rgba(62,189,229,255)" x="176" y="96" width="16" height="16"/>
	<rect fill="rgba(0,170,222,255)" x="192" y="96" width="16" height="16"/>
	<rect fill="rgba(0,169,221,255)" x="208" y="96" width="16" height="16"/>
	<rect fill="rgba(0,144,189,255)" x="224" y="96" width="16" height="16"/>
	<rect fill="rgba(38,182,227,255)" x="0" y="112" width="16" height="16"/>
	<rect fill="rgba(1,170,222,255)" x="16" y="112" width="16" height="16"/>
	<rect fill="rgba(0,170,222,255)" x="32" y="112" width="16" height="16"/>
	<rect fill="rgba(31,180,226,255)" x="48" y="112" width="16" height="16"/>
	<rect fill="rgba(163,222,240,255)" x="64" y="112" width="16" height="16"/>
	<rect fill="rgba(248,249,250,255)" x="80" y="112" width="16" height="16"/>
	<rect fill="rgba(248,249,250,255)" x="96" y="112" width="16" height="16"/>
	<rect fill="rgba(248,249,250,255)" x="112" y="112" width="16" height="16"/>
	<rect fill="rgba(248,249,250,255)" x="128" y="112" width="16" height="16"/>
	<rect fill="rgba(248,249,250,255)" x="144" y="112" width="16" height="16"/>
	<rect fill="rgba(248,249,250,255)" x="160" y="112" width="16" height="16"/>
	<rect fill="rgba(62,189,229,255)" x="176" y="112" width="16" height="16"/>
	<rect fill="rgba(0,170,222,255)" x="192" y="112" width="16" height="16"/>
	<rect fill="rgba(0,169,221,255)" x="208" y="112" width="16" height="16"/>
	<rect fill="rgba(0,144,189,255)" x="224" y="112" width="16" height="16"/>
	<rect fill="rgba(38,182,227,255)" x="0" y="128" width="16" height="16"/>
	<rect fill="rgba(1,170,222,255)" x="16" y="128" width="16" height="16"/>
	<rect fill="rgba(0,170,222,255)" x="32" y="128" width="16" height="16"/>
	<rect fill="rgba(0,170,222,255)" x="48" y="128" width="16" height="16"/>
	<rect fill="rgba(78,195,231,255)" x="64" y="128" width="16" height="16"/>
	<rect fill="rgba(248,249,250,255)" x="80" y="128" width="16" height="16"/>
	<rect fill="rgba(248,249,250,255)" x="96" y="128" width="16" height="16"/>
	<rect fill="rgba(248,249,250,255)" x="112" y="128" width="16" height="16"/>
	<rect fill="rgba(248,249,250,255)" x="128" y="128" width="16" height="16"/>
	<rect fill="rgba(248,249,250,255)" x="144" y="128" width="16" height="16"/>
	<rect fill="rgba(151,218,239,255)" x="160" y="128" width="16" height="16"/>
	<rect fill="rgba(1,170,222,255)" x="176" y="128" width="16" height="16"/>
	<rect fill="rgba(0,170,222,255)" x="192" y="128" width="16" height="16"/>
	<rect fill="rgba(0,169,221,255)" x="208" y="128" width="16" height="16"/>
	<rect fill="rgba(0,144,189,255)" x="224" y="128" width="16" height="16"/>
	<rect fill="rgba(38,182,227,255)" x="0" y="144" width="16" height="16"/>
	<rect fill="rgba(1,170,222,255)" x="16" y="144" width="16" height="16"/>
	<rect fill="rgba(0,170,222,255)" x="32" y="144" width="16" height="16"/>
	<rect fill="rgba(0,170,222,255)" x="48" y="144" width="16" height="16"/>
	<rect fill="rgba(29,179,225,255)" x="64" y="144" width="16" height="16"/>
	<rect fill="rgba(150,218,239,255)" x="80" y="144" width="16" height="16"/>
	<rect fill="rgba(248,249,250,255)" x="96" y="144" width="16" height="16"/>
	<rect fill="rgba(248,249,250,255)" x="112" y="144" width="16" height="16"/>
	<rect fill="rgba(248,249,250,255)" x="128" y="144" width="16" height="16"/>
	<rect fill="rgba(149,218,239,255)" x="144" y="144" width="16" height="16"/>
	<rect fill="rgba(1,170,222,255)" x="160" y="144" width="16" height="16"/>
	<rect fill="rgba(0,170,222,255)" x="176" y="144" width="16" height="16"/>
	<rect fill="rgba(0,170,222,255)" x="192" y="144" width="16" height="16"/>
	<rect fill="rgba(0,169,221,255)" x="208" y="144" width="16" height="16"/>
	<rect fill="rgba(0,144,189,255)" x="224" y="144" width="16" height="16"/>
	<rect fill="rgba(38,182,227,255)" x="0" y="160" width="16" height="16"/>
	<rect fill="rgba(1,170,222,255)" x="16" y="160" width="16" height="16"/>
	<rect fill="rgba(33,180,226,255)" x="32" y="160" width="16" height="16"/>
	<rect fill="rgba(173,225,241,255)" x="48" y="160" width="16" height="16"/>
	<rect fill="rgba(172,225,241,255)" x="64" y="160" width="16" height="16"/>
	<rect fill="rgba(201,234,245,255)" x="80" y="160" width="16" height="16"/>
	<rect fill="rgba(248,249,250,255)" x="96" y="160" width="16" height="16"/>
	<rect fill="rgba(248,249,250,255)" x="112" y="160" width="16" height="16"/>
	<rect fill="rgba(151,218,239,255)" x="128" y="160" width="16" height="16"/>
	<rect fill="rgba(1,170,222,255)" x="144" y="160" width="16" height="16"/>
	<rect fill="rgba(0,170,222,255)" x="160" y="160" width="16" height="16"/>
	<rect fill="rgba(0,170,222,255)" x="176" y="160" width="16" height="16"/>
	<rect fill="rgba(0,170,222,255)" x="192" y="160" width="16" height="16"/>
	<rect fill="rgba(0,169,221,255)" x="208" y="160" width="16" height="16"/>
	<rect fill="rgba(0,144,189,255)" x="224" y="160" width="16" height="16"/>
	<rect fill="rgba(38,182,227,255)" x="0" y="176" width="16" height="16"/>
	<rect fill="rgba(1,170,222,255)" x="16" y="176" width="16" height="16"/>
	<rect fill="rgba(1,170,222,255)" x="32" y="176" width="16" height="16"/>
	<rect fill="rgba(108,204,234,255)" x="48" y="176" width="16" height="16"/>
	<rect fill="rgba(247,249,250,255)" x="64" y="176" width="16" height="16"/>
	<rect fill="rgba(247,249,250,255)" x="80" y="176" width="16" height="16"/>
	<rect fill="rgba(166,223,241,255)" x="96" y="176" width="16" height="16"/>
	<rect fill="rgba(62,189,229,255)" x="112" y="176" width="16" height="16"/>
	<rect fill="rgba(1,170,222,255)" x="128" y="176" width="16" height="16"/>
	<rect fill="rgba(0,170,222,255)" x="144" y="176" width="16" height="16"/>
	<rect fill="rgba(0,170,222,255)" x="160" y="176" width="16" height="16"/>
	<rect fill="rgba(0,170,222,255)" x="176" y="176" width="16" height="16"/>
	<rect fill="rgba(0,170,222,255)" x="192" y="176" width="16" height="16"/>
	<rect fill="rgba(0,169,221,255)" x="208" y="176" width="16" height="16"/>
	<rect fill="rgba(0,144,189,255)" x="224" y="176" width="16" height="16"/>
	<rect fill="rgba(38,182,227,255)" x="0" y="192" width="16" height="16"/>
	<rect fill="rgba(1,170,222,255)" x="16" y="192" width="16" height="16"/>
	<rect fill="rgba(1,170,222,255)" x="32" y="192" width="16" height="16"/>
	<rect fill="rgba(1,170,222,255)" x="48" y="192" width="16" height="16"/>
	<rect fill="rgba(41,183,227,255)" x="64" y="192" width="16" height="16"/>
	<rect fill="rgba(41,183,227,255)" x="80" y="192" width="16" height="16"/>
	<rect fill="rgba(1,170,222,255)" x="96" y="192" width="16" height="16"/>
	<rect fill="rgba(0,170,222,255)" x="112" y="192" width="16" height="16"/>
	<rect fill="rgba(0,170,222,255)" x="128" y="192" width="16" height="16"/>
	<rect fill="rgba(0,170,222,255)" x="144" y="192" width="16" height="16"/>
	<rect fill="rgba(0,170,222,255)" x="160" y="192" width="16" height="16"/>
	<rect fill="rgba(0,170,222,255)" x="176" y="192" width="16" height="16"/>
	<rect fill="rgba(0,170,222,255)" x="192" y="192" width="16" height="16"/>
	<rect fill="rgba(0,169,221,255)" x="208" y="192" width="16" height="16"/>
	<rect fill="rgba(0,143,188,255)" x="224" y="192" width="16" height="16"/>
	<rect fill="rgba(1,170,222,255)" x="16" y="208" width="16" height="16"/>
	<rect fill="rgba(0,169,221,255)" x="32" y="208" width="16" height="16"/>
	<rect fill="rgba(0,169,221,255)" x="48" y="208" width="16" height="16"/>
	<rect fill="rgba(0,169,221,255)" x="64" y="208" width="16" height="16"/>
	<rect fill="rgba(0,169,221,255)" x="80" y="208" width="16" height="16"/>
	<rect fill="rgba(0,169,221,255)" x="96" y="208" width="16" height="16"/>
	<rect fill="rgba(0,169,221,255)" x="112" y="208" width="16" height="16"/>
	<rect fill="rgba(0,169,221,255)" x="128" y="208" width="16" height="16"/>
	<rect fill="rgba(0,169,221,255)" x="144" y="208" width="16" height="16"/>
	<rect fill="rgba(0,169,221,255)" x="160" y="208" width="16" height="16"/>
	<rect fill="rgba(0,169,221,255)" x="176" y="208" width="16" height="16"/>
	<rect fill="rgba(0,169,221,255)" x="192" y="208" width="16" height="16"/>
	<rect fill="rgba(0,144,189,255)" x="208" y="208" width="16" height="16"/>
	<rect fill="rgba(0,143,188,255)" x="32" y="224" width="16" height="16"/>
	<rect fill="rgba(0,144,189,255)" x="48" y="224" width="16" height="16"/>
	<rect fill="rgba(0,144,189,255)" x="64" y="224" width="16" height="16"/>
	<rect fill="rgba(0,144,189,255)" x="80" y="224" width="16" height="16"/>
	<rect fill="rgba(0,144,189,255)" x="96" y="224" width="16" height="16"/>
	<rect fill="rgba(0,144,189,255)" x="112" y="224" width="16" height="16"/>
	<rect fill="rgba(0,144,189,255)" x="128" y="224" width="16" height="16"/>
	<rect fill="rgba(0,144,189,255)" x="144" y="224" width="16" height="16"/>
	<rect fill="rgba(0,144,189,255)" x="160" y="224" width="16" height="16"/>
	<rect fill="rgba(0,144,189,255)" x="176" y="224" width="16" height="16"/>
	<rect fill="rgba(0,143,188,255)" x="192" y="224" width="16" height="16"/>
</svg>